%TF.GenerationSoftware,KiCad,Pcbnew,(6.0.2)*%
%TF.CreationDate,2022-08-07T03:14:06+03:00*%
%TF.ProjectId,LM2596_buck_5,4c4d3235-3936-45f6-9275-636b5f352e6b,v1.0*%
%TF.SameCoordinates,Original*%
%TF.FileFunction,Legend,Bot*%
%TF.FilePolarity,Positive*%
%FSLAX46Y46*%
G04 Gerber Fmt 4.6, Leading zero omitted, Abs format (unit mm)*
G04 Created by KiCad (PCBNEW (6.0.2)) date 2022-08-07 03:14:06*
%MOMM*%
%LPD*%
G01*
G04 APERTURE LIST*
%ADD10C,0.300000*%
%ADD11C,0.250000*%
G04 APERTURE END LIST*
D10*
X150071428Y-100678571D02*
X150071428Y-99178571D01*
X149714285Y-99178571D01*
X149500000Y-99250000D01*
X149357142Y-99392857D01*
X149285714Y-99535714D01*
X149214285Y-99821428D01*
X149214285Y-100035714D01*
X149285714Y-100321428D01*
X149357142Y-100464285D01*
X149500000Y-100607142D01*
X149714285Y-100678571D01*
X150071428Y-100678571D01*
X148000000Y-100607142D02*
X148142857Y-100678571D01*
X148428571Y-100678571D01*
X148571428Y-100607142D01*
X148642857Y-100464285D01*
X148642857Y-99892857D01*
X148571428Y-99750000D01*
X148428571Y-99678571D01*
X148142857Y-99678571D01*
X148000000Y-99750000D01*
X147928571Y-99892857D01*
X147928571Y-100035714D01*
X148642857Y-100178571D01*
X147357142Y-100607142D02*
X147214285Y-100678571D01*
X146928571Y-100678571D01*
X146785714Y-100607142D01*
X146714285Y-100464285D01*
X146714285Y-100392857D01*
X146785714Y-100250000D01*
X146928571Y-100178571D01*
X147142857Y-100178571D01*
X147285714Y-100107142D01*
X147357142Y-99964285D01*
X147357142Y-99892857D01*
X147285714Y-99750000D01*
X147142857Y-99678571D01*
X146928571Y-99678571D01*
X146785714Y-99750000D01*
X146071428Y-100678571D02*
X146071428Y-99678571D01*
X146071428Y-99178571D02*
X146142857Y-99250000D01*
X146071428Y-99321428D01*
X146000000Y-99250000D01*
X146071428Y-99178571D01*
X146071428Y-99321428D01*
X144714285Y-99678571D02*
X144714285Y-100892857D01*
X144785714Y-101035714D01*
X144857142Y-101107142D01*
X145000000Y-101178571D01*
X145214285Y-101178571D01*
X145357142Y-101107142D01*
X144714285Y-100607142D02*
X144857142Y-100678571D01*
X145142857Y-100678571D01*
X145285714Y-100607142D01*
X145357142Y-100535714D01*
X145428571Y-100392857D01*
X145428571Y-99964285D01*
X145357142Y-99821428D01*
X145285714Y-99750000D01*
X145142857Y-99678571D01*
X144857142Y-99678571D01*
X144714285Y-99750000D01*
X144000000Y-99678571D02*
X144000000Y-100678571D01*
X144000000Y-99821428D02*
X143928571Y-99750000D01*
X143785714Y-99678571D01*
X143571428Y-99678571D01*
X143428571Y-99750000D01*
X143357142Y-99892857D01*
X143357142Y-100678571D01*
X142071428Y-100607142D02*
X142214285Y-100678571D01*
X142500000Y-100678571D01*
X142642857Y-100607142D01*
X142714285Y-100464285D01*
X142714285Y-99892857D01*
X142642857Y-99750000D01*
X142500000Y-99678571D01*
X142214285Y-99678571D01*
X142071428Y-99750000D01*
X142000000Y-99892857D01*
X142000000Y-100035714D01*
X142714285Y-100178571D01*
X140714285Y-100678571D02*
X140714285Y-99178571D01*
X140714285Y-100607142D02*
X140857142Y-100678571D01*
X141142857Y-100678571D01*
X141285714Y-100607142D01*
X141357142Y-100535714D01*
X141428571Y-100392857D01*
X141428571Y-99964285D01*
X141357142Y-99821428D01*
X141285714Y-99750000D01*
X141142857Y-99678571D01*
X140857142Y-99678571D01*
X140714285Y-99750000D01*
X138857142Y-100678571D02*
X138857142Y-99178571D01*
X138857142Y-99750000D02*
X138714285Y-99678571D01*
X138428571Y-99678571D01*
X138285714Y-99750000D01*
X138214285Y-99821428D01*
X138142857Y-99964285D01*
X138142857Y-100392857D01*
X138214285Y-100535714D01*
X138285714Y-100607142D01*
X138428571Y-100678571D01*
X138714285Y-100678571D01*
X138857142Y-100607142D01*
X137642857Y-99678571D02*
X137285714Y-100678571D01*
X136928571Y-99678571D02*
X137285714Y-100678571D01*
X137428571Y-101035714D01*
X137500000Y-101107142D01*
X137642857Y-101178571D01*
X136357142Y-100535714D02*
X136285714Y-100607142D01*
X136357142Y-100678571D01*
X136428571Y-100607142D01*
X136357142Y-100535714D01*
X136357142Y-100678571D01*
X136357142Y-99750000D02*
X136285714Y-99821428D01*
X136357142Y-99892857D01*
X136428571Y-99821428D01*
X136357142Y-99750000D01*
X136357142Y-99892857D01*
X134500000Y-100678571D02*
X134500000Y-99178571D01*
X134000000Y-100250000D01*
X133500000Y-99178571D01*
X133500000Y-100678571D01*
X132214285Y-100607142D02*
X132357142Y-100678571D01*
X132642857Y-100678571D01*
X132785714Y-100607142D01*
X132857142Y-100464285D01*
X132857142Y-99892857D01*
X132785714Y-99750000D01*
X132642857Y-99678571D01*
X132357142Y-99678571D01*
X132214285Y-99750000D01*
X132142857Y-99892857D01*
X132142857Y-100035714D01*
X132857142Y-100178571D01*
X131500000Y-100678571D02*
X131500000Y-99178571D01*
X130857142Y-100678571D02*
X130857142Y-99892857D01*
X130928571Y-99750000D01*
X131071428Y-99678571D01*
X131285714Y-99678571D01*
X131428571Y-99750000D01*
X131500000Y-99821428D01*
X130142857Y-100678571D02*
X130142857Y-99678571D01*
X130142857Y-99821428D02*
X130071428Y-99750000D01*
X129928571Y-99678571D01*
X129714285Y-99678571D01*
X129571428Y-99750000D01*
X129500000Y-99892857D01*
X129500000Y-100678571D01*
X129500000Y-99892857D02*
X129428571Y-99750000D01*
X129285714Y-99678571D01*
X129071428Y-99678571D01*
X128928571Y-99750000D01*
X128857142Y-99892857D01*
X128857142Y-100678571D01*
X127571428Y-100607142D02*
X127714285Y-100678571D01*
X128000000Y-100678571D01*
X128142857Y-100607142D01*
X128214285Y-100464285D01*
X128214285Y-99892857D01*
X128142857Y-99750000D01*
X128000000Y-99678571D01*
X127714285Y-99678571D01*
X127571428Y-99750000D01*
X127500000Y-99892857D01*
X127500000Y-100035714D01*
X128214285Y-100178571D01*
X127071428Y-99678571D02*
X126500000Y-99678571D01*
X126857142Y-99178571D02*
X126857142Y-100464285D01*
X126785714Y-100607142D01*
X126642857Y-100678571D01*
X126500000Y-100678571D01*
X124857142Y-99892857D02*
X124357142Y-99892857D01*
X124142857Y-100678571D02*
X124857142Y-100678571D01*
X124857142Y-99178571D01*
X124142857Y-99178571D01*
X123500000Y-100678571D02*
X123500000Y-99678571D01*
X123500000Y-99821428D02*
X123428571Y-99750000D01*
X123285714Y-99678571D01*
X123071428Y-99678571D01*
X122928571Y-99750000D01*
X122857142Y-99892857D01*
X122857142Y-100678571D01*
X122857142Y-99892857D02*
X122785714Y-99750000D01*
X122642857Y-99678571D01*
X122428571Y-99678571D01*
X122285714Y-99750000D01*
X122214285Y-99892857D01*
X122214285Y-100678571D01*
X121500000Y-100678571D02*
X121500000Y-99678571D01*
X121500000Y-99964285D02*
X121428571Y-99821428D01*
X121357142Y-99750000D01*
X121214285Y-99678571D01*
X121071428Y-99678571D01*
X120000000Y-100607142D02*
X120142857Y-100678571D01*
X120428571Y-100678571D01*
X120571428Y-100607142D01*
X120642857Y-100464285D01*
X120642857Y-99892857D01*
X120571428Y-99750000D01*
X120428571Y-99678571D01*
X120142857Y-99678571D01*
X120000000Y-99750000D01*
X119928571Y-99892857D01*
X119928571Y-100035714D01*
X120642857Y-100178571D01*
X118142857Y-100678571D02*
X118142857Y-99178571D01*
X117785714Y-99178571D01*
X117571428Y-99250000D01*
X117428571Y-99392857D01*
X117357142Y-99535714D01*
X117285714Y-99821428D01*
X117285714Y-100035714D01*
X117357142Y-100321428D01*
X117428571Y-100464285D01*
X117571428Y-100607142D01*
X117785714Y-100678571D01*
X118142857Y-100678571D01*
X116428571Y-100678571D02*
X116571428Y-100607142D01*
X116642857Y-100535714D01*
X116714285Y-100392857D01*
X116714285Y-99964285D01*
X116642857Y-99821428D01*
X116571428Y-99750000D01*
X116428571Y-99678571D01*
X116214285Y-99678571D01*
X116071428Y-99750000D01*
X116000000Y-99821428D01*
X115928571Y-99964285D01*
X115928571Y-100392857D01*
X116000000Y-100535714D01*
X116071428Y-100607142D01*
X116214285Y-100678571D01*
X116428571Y-100678571D01*
X114642857Y-99678571D02*
X114642857Y-100892857D01*
X114714285Y-101035714D01*
X114785714Y-101107142D01*
X114928571Y-101178571D01*
X115142857Y-101178571D01*
X115285714Y-101107142D01*
X114642857Y-100607142D02*
X114785714Y-100678571D01*
X115071428Y-100678571D01*
X115214285Y-100607142D01*
X115285714Y-100535714D01*
X115357142Y-100392857D01*
X115357142Y-99964285D01*
X115285714Y-99821428D01*
X115214285Y-99750000D01*
X115071428Y-99678571D01*
X114785714Y-99678571D01*
X114642857Y-99750000D01*
X115285714Y-99107142D02*
X115214285Y-99250000D01*
X115071428Y-99321428D01*
X114928571Y-99321428D01*
X114785714Y-99250000D01*
X114714285Y-99107142D01*
X113285714Y-100678571D02*
X113285714Y-99892857D01*
X113357142Y-99750000D01*
X113500000Y-99678571D01*
X113785714Y-99678571D01*
X113928571Y-99750000D01*
X113285714Y-100607142D02*
X113428571Y-100678571D01*
X113785714Y-100678571D01*
X113928571Y-100607142D01*
X114000000Y-100464285D01*
X114000000Y-100321428D01*
X113928571Y-100178571D01*
X113785714Y-100107142D01*
X113428571Y-100107142D01*
X113285714Y-100035714D01*
X112571428Y-99678571D02*
X112571428Y-100678571D01*
X112571428Y-99821428D02*
X112500000Y-99750000D01*
X112357142Y-99678571D01*
X112142857Y-99678571D01*
X112000000Y-99750000D01*
X111928571Y-99892857D01*
X111928571Y-100678571D01*
D11*
X150095238Y-96904761D02*
X151047619Y-96904761D01*
X151047619Y-94904761D01*
X149428571Y-96904761D02*
X149428571Y-94904761D01*
X148761904Y-96333333D01*
X148095238Y-94904761D01*
X148095238Y-96904761D01*
X147238095Y-95095238D02*
X147142857Y-95000000D01*
X146952380Y-94904761D01*
X146476190Y-94904761D01*
X146285714Y-95000000D01*
X146190476Y-95095238D01*
X146095238Y-95285714D01*
X146095238Y-95476190D01*
X146190476Y-95761904D01*
X147333333Y-96904761D01*
X146095238Y-96904761D01*
X144285714Y-94904761D02*
X145238095Y-94904761D01*
X145333333Y-95857142D01*
X145238095Y-95761904D01*
X145047619Y-95666666D01*
X144571428Y-95666666D01*
X144380952Y-95761904D01*
X144285714Y-95857142D01*
X144190476Y-96047619D01*
X144190476Y-96523809D01*
X144285714Y-96714285D01*
X144380952Y-96809523D01*
X144571428Y-96904761D01*
X145047619Y-96904761D01*
X145238095Y-96809523D01*
X145333333Y-96714285D01*
X143238095Y-96904761D02*
X142857142Y-96904761D01*
X142666666Y-96809523D01*
X142571428Y-96714285D01*
X142380952Y-96428571D01*
X142285714Y-96047619D01*
X142285714Y-95285714D01*
X142380952Y-95095238D01*
X142476190Y-95000000D01*
X142666666Y-94904761D01*
X143047619Y-94904761D01*
X143238095Y-95000000D01*
X143333333Y-95095238D01*
X143428571Y-95285714D01*
X143428571Y-95761904D01*
X143333333Y-95952380D01*
X143238095Y-96047619D01*
X143047619Y-96142857D01*
X142666666Y-96142857D01*
X142476190Y-96047619D01*
X142380952Y-95952380D01*
X142285714Y-95761904D01*
X140571428Y-94904761D02*
X140952380Y-94904761D01*
X141142857Y-95000000D01*
X141238095Y-95095238D01*
X141428571Y-95380952D01*
X141523809Y-95761904D01*
X141523809Y-96523809D01*
X141428571Y-96714285D01*
X141333333Y-96809523D01*
X141142857Y-96904761D01*
X140761904Y-96904761D01*
X140571428Y-96809523D01*
X140476190Y-96714285D01*
X140380952Y-96523809D01*
X140380952Y-96047619D01*
X140476190Y-95857142D01*
X140571428Y-95761904D01*
X140761904Y-95666666D01*
X141142857Y-95666666D01*
X141333333Y-95761904D01*
X141428571Y-95857142D01*
X141523809Y-96047619D01*
X137047619Y-94904761D02*
X138000000Y-94904761D01*
X138095238Y-95857142D01*
X138000000Y-95761904D01*
X137809523Y-95666666D01*
X137333333Y-95666666D01*
X137142857Y-95761904D01*
X137047619Y-95857142D01*
X136952380Y-96047619D01*
X136952380Y-96523809D01*
X137047619Y-96714285D01*
X137142857Y-96809523D01*
X137333333Y-96904761D01*
X137809523Y-96904761D01*
X138000000Y-96809523D01*
X138095238Y-96714285D01*
X136380952Y-94904761D02*
X135714285Y-96904761D01*
X135047619Y-94904761D01*
X132190476Y-95857142D02*
X131904761Y-95952380D01*
X131809523Y-96047619D01*
X131714285Y-96238095D01*
X131714285Y-96523809D01*
X131809523Y-96714285D01*
X131904761Y-96809523D01*
X132095238Y-96904761D01*
X132857142Y-96904761D01*
X132857142Y-94904761D01*
X132190476Y-94904761D01*
X132000000Y-95000000D01*
X131904761Y-95095238D01*
X131809523Y-95285714D01*
X131809523Y-95476190D01*
X131904761Y-95666666D01*
X132000000Y-95761904D01*
X132190476Y-95857142D01*
X132857142Y-95857142D01*
X130000000Y-95571428D02*
X130000000Y-96904761D01*
X130857142Y-95571428D02*
X130857142Y-96619047D01*
X130761904Y-96809523D01*
X130571428Y-96904761D01*
X130285714Y-96904761D01*
X130095238Y-96809523D01*
X130000000Y-96714285D01*
X128190476Y-96809523D02*
X128380952Y-96904761D01*
X128761904Y-96904761D01*
X128952380Y-96809523D01*
X129047619Y-96714285D01*
X129142857Y-96523809D01*
X129142857Y-95952380D01*
X129047619Y-95761904D01*
X128952380Y-95666666D01*
X128761904Y-95571428D01*
X128380952Y-95571428D01*
X128190476Y-95666666D01*
X127333333Y-96904761D02*
X127333333Y-94904761D01*
X127142857Y-96142857D02*
X126571428Y-96904761D01*
X126571428Y-95571428D02*
X127333333Y-96333333D01*
X123047619Y-96714285D02*
X123142857Y-96809523D01*
X123428571Y-96904761D01*
X123619047Y-96904761D01*
X123904761Y-96809523D01*
X124095238Y-96619047D01*
X124190476Y-96428571D01*
X124285714Y-96047619D01*
X124285714Y-95761904D01*
X124190476Y-95380952D01*
X124095238Y-95190476D01*
X123904761Y-95000000D01*
X123619047Y-94904761D01*
X123428571Y-94904761D01*
X123142857Y-95000000D01*
X123047619Y-95095238D01*
X121904761Y-96904761D02*
X122095238Y-96809523D01*
X122190476Y-96714285D01*
X122285714Y-96523809D01*
X122285714Y-95952380D01*
X122190476Y-95761904D01*
X122095238Y-95666666D01*
X121904761Y-95571428D01*
X121619047Y-95571428D01*
X121428571Y-95666666D01*
X121333333Y-95761904D01*
X121238095Y-95952380D01*
X121238095Y-96523809D01*
X121333333Y-96714285D01*
X121428571Y-96809523D01*
X121619047Y-96904761D01*
X121904761Y-96904761D01*
X120380952Y-95571428D02*
X120380952Y-96904761D01*
X120380952Y-95761904D02*
X120285714Y-95666666D01*
X120095238Y-95571428D01*
X119809523Y-95571428D01*
X119619047Y-95666666D01*
X119523809Y-95857142D01*
X119523809Y-96904761D01*
X118761904Y-95571428D02*
X118285714Y-96904761D01*
X117809523Y-95571428D01*
X116285714Y-96809523D02*
X116476190Y-96904761D01*
X116857142Y-96904761D01*
X117047619Y-96809523D01*
X117142857Y-96619047D01*
X117142857Y-95857142D01*
X117047619Y-95666666D01*
X116857142Y-95571428D01*
X116476190Y-95571428D01*
X116285714Y-95666666D01*
X116190476Y-95857142D01*
X116190476Y-96047619D01*
X117142857Y-96238095D01*
X115333333Y-96904761D02*
X115333333Y-95571428D01*
X115333333Y-95952380D02*
X115238095Y-95761904D01*
X115142857Y-95666666D01*
X114952380Y-95571428D01*
X114761904Y-95571428D01*
X114380952Y-95571428D02*
X113619047Y-95571428D01*
X114095238Y-94904761D02*
X114095238Y-96619047D01*
X114000000Y-96809523D01*
X113809523Y-96904761D01*
X113619047Y-96904761D01*
X112190476Y-96809523D02*
X112380952Y-96904761D01*
X112761904Y-96904761D01*
X112952380Y-96809523D01*
X113047619Y-96619047D01*
X113047619Y-95857142D01*
X112952380Y-95666666D01*
X112761904Y-95571428D01*
X112380952Y-95571428D01*
X112190476Y-95666666D01*
X112095238Y-95857142D01*
X112095238Y-96047619D01*
X113047619Y-96238095D01*
X111238095Y-96904761D02*
X111238095Y-95571428D01*
X111238095Y-95952380D02*
X111142857Y-95761904D01*
X111047619Y-95666666D01*
X110857142Y-95571428D01*
X110666666Y-95571428D01*
M02*
