%TF.GenerationSoftware,KiCad,Pcbnew,(6.0.2)*%
%TF.CreationDate,2022-08-07T03:14:06+03:00*%
%TF.ProjectId,LM2596_buck_5,4c4d3235-3936-45f6-9275-636b5f352e6b,v1.0*%
%TF.SameCoordinates,Original*%
%TF.FileFunction,Legend,Top*%
%TF.FilePolarity,Positive*%
%FSLAX46Y46*%
G04 Gerber Fmt 4.6, Leading zero omitted, Abs format (unit mm)*
G04 Created by KiCad (PCBNEW (6.0.2)) date 2022-08-07 03:14:06*
%MOMM*%
%LPD*%
G01*
G04 APERTURE LIST*
%ADD10C,0.150000*%
%ADD11C,0.120000*%
G04 APERTURE END LIST*
D10*
X122404761Y-116452380D02*
X121928571Y-116452380D01*
X121928571Y-115452380D01*
X122738095Y-116452380D02*
X122738095Y-115452380D01*
X123071428Y-116166666D01*
X123404761Y-115452380D01*
X123404761Y-116452380D01*
X123833333Y-115547619D02*
X123880952Y-115500000D01*
X123976190Y-115452380D01*
X124214285Y-115452380D01*
X124309523Y-115500000D01*
X124357142Y-115547619D01*
X124404761Y-115642857D01*
X124404761Y-115738095D01*
X124357142Y-115880952D01*
X123785714Y-116452380D01*
X124404761Y-116452380D01*
X125309523Y-115452380D02*
X124833333Y-115452380D01*
X124785714Y-115928571D01*
X124833333Y-115880952D01*
X124928571Y-115833333D01*
X125166666Y-115833333D01*
X125261904Y-115880952D01*
X125309523Y-115928571D01*
X125357142Y-116023809D01*
X125357142Y-116261904D01*
X125309523Y-116357142D01*
X125261904Y-116404761D01*
X125166666Y-116452380D01*
X124928571Y-116452380D01*
X124833333Y-116404761D01*
X124785714Y-116357142D01*
X125833333Y-116452380D02*
X126023809Y-116452380D01*
X126119047Y-116404761D01*
X126166666Y-116357142D01*
X126261904Y-116214285D01*
X126309523Y-116023809D01*
X126309523Y-115642857D01*
X126261904Y-115547619D01*
X126214285Y-115500000D01*
X126119047Y-115452380D01*
X125928571Y-115452380D01*
X125833333Y-115500000D01*
X125785714Y-115547619D01*
X125738095Y-115642857D01*
X125738095Y-115880952D01*
X125785714Y-115976190D01*
X125833333Y-116023809D01*
X125928571Y-116071428D01*
X126119047Y-116071428D01*
X126214285Y-116023809D01*
X126261904Y-115976190D01*
X126309523Y-115880952D01*
X127166666Y-115452380D02*
X126976190Y-115452380D01*
X126880952Y-115500000D01*
X126833333Y-115547619D01*
X126738095Y-115690476D01*
X126690476Y-115880952D01*
X126690476Y-116261904D01*
X126738095Y-116357142D01*
X126785714Y-116404761D01*
X126880952Y-116452380D01*
X127071428Y-116452380D01*
X127166666Y-116404761D01*
X127214285Y-116357142D01*
X127261904Y-116261904D01*
X127261904Y-116023809D01*
X127214285Y-115928571D01*
X127166666Y-115880952D01*
X127071428Y-115833333D01*
X126880952Y-115833333D01*
X126785714Y-115880952D01*
X126738095Y-115928571D01*
X126690476Y-116023809D01*
X128928571Y-115452380D02*
X128452380Y-115452380D01*
X128404761Y-115928571D01*
X128452380Y-115880952D01*
X128547619Y-115833333D01*
X128785714Y-115833333D01*
X128880952Y-115880952D01*
X128928571Y-115928571D01*
X128976190Y-116023809D01*
X128976190Y-116261904D01*
X128928571Y-116357142D01*
X128880952Y-116404761D01*
X128785714Y-116452380D01*
X128547619Y-116452380D01*
X128452380Y-116404761D01*
X128404761Y-116357142D01*
X129261904Y-115452380D02*
X129595238Y-116452380D01*
X129928571Y-115452380D01*
X131357142Y-115928571D02*
X131500000Y-115976190D01*
X131547619Y-116023809D01*
X131595238Y-116119047D01*
X131595238Y-116261904D01*
X131547619Y-116357142D01*
X131500000Y-116404761D01*
X131404761Y-116452380D01*
X131023809Y-116452380D01*
X131023809Y-115452380D01*
X131357142Y-115452380D01*
X131452380Y-115500000D01*
X131500000Y-115547619D01*
X131547619Y-115642857D01*
X131547619Y-115738095D01*
X131500000Y-115833333D01*
X131452380Y-115880952D01*
X131357142Y-115928571D01*
X131023809Y-115928571D01*
X132452380Y-115785714D02*
X132452380Y-116452380D01*
X132023809Y-115785714D02*
X132023809Y-116309523D01*
X132071428Y-116404761D01*
X132166666Y-116452380D01*
X132309523Y-116452380D01*
X132404761Y-116404761D01*
X132452380Y-116357142D01*
X133357142Y-116404761D02*
X133261904Y-116452380D01*
X133071428Y-116452380D01*
X132976190Y-116404761D01*
X132928571Y-116357142D01*
X132880952Y-116261904D01*
X132880952Y-115976190D01*
X132928571Y-115880952D01*
X132976190Y-115833333D01*
X133071428Y-115785714D01*
X133261904Y-115785714D01*
X133357142Y-115833333D01*
X133785714Y-116452380D02*
X133785714Y-115452380D01*
X133880952Y-116071428D02*
X134166666Y-116452380D01*
X134166666Y-115785714D02*
X133785714Y-116166666D01*
X135928571Y-116452380D02*
X135595238Y-115976190D01*
X135357142Y-116452380D02*
X135357142Y-115452380D01*
X135738095Y-115452380D01*
X135833333Y-115500000D01*
X135880952Y-115547619D01*
X135928571Y-115642857D01*
X135928571Y-115785714D01*
X135880952Y-115880952D01*
X135833333Y-115928571D01*
X135738095Y-115976190D01*
X135357142Y-115976190D01*
X136738095Y-116404761D02*
X136642857Y-116452380D01*
X136452380Y-116452380D01*
X136357142Y-116404761D01*
X136309523Y-116309523D01*
X136309523Y-115928571D01*
X136357142Y-115833333D01*
X136452380Y-115785714D01*
X136642857Y-115785714D01*
X136738095Y-115833333D01*
X136785714Y-115928571D01*
X136785714Y-116023809D01*
X136309523Y-116119047D01*
X137642857Y-115785714D02*
X137642857Y-116595238D01*
X137595238Y-116690476D01*
X137547619Y-116738095D01*
X137452380Y-116785714D01*
X137309523Y-116785714D01*
X137214285Y-116738095D01*
X137642857Y-116404761D02*
X137547619Y-116452380D01*
X137357142Y-116452380D01*
X137261904Y-116404761D01*
X137214285Y-116357142D01*
X137166666Y-116261904D01*
X137166666Y-115976190D01*
X137214285Y-115880952D01*
X137261904Y-115833333D01*
X137357142Y-115785714D01*
X137547619Y-115785714D01*
X137642857Y-115833333D01*
X138547619Y-115785714D02*
X138547619Y-116452380D01*
X138119047Y-115785714D02*
X138119047Y-116309523D01*
X138166666Y-116404761D01*
X138261904Y-116452380D01*
X138404761Y-116452380D01*
X138500000Y-116404761D01*
X138547619Y-116357142D01*
X139166666Y-116452380D02*
X139071428Y-116404761D01*
X139023809Y-116309523D01*
X139023809Y-115452380D01*
X139976190Y-116452380D02*
X139976190Y-115928571D01*
X139928571Y-115833333D01*
X139833333Y-115785714D01*
X139642857Y-115785714D01*
X139547619Y-115833333D01*
X139976190Y-116404761D02*
X139880952Y-116452380D01*
X139642857Y-116452380D01*
X139547619Y-116404761D01*
X139500000Y-116309523D01*
X139500000Y-116214285D01*
X139547619Y-116119047D01*
X139642857Y-116071428D01*
X139880952Y-116071428D01*
X139976190Y-116023809D01*
X140309523Y-115785714D02*
X140690476Y-115785714D01*
X140452380Y-115452380D02*
X140452380Y-116309523D01*
X140500000Y-116404761D01*
X140595238Y-116452380D01*
X140690476Y-116452380D01*
X141166666Y-116452380D02*
X141071428Y-116404761D01*
X141023809Y-116357142D01*
X140976190Y-116261904D01*
X140976190Y-115976190D01*
X141023809Y-115880952D01*
X141071428Y-115833333D01*
X141166666Y-115785714D01*
X141309523Y-115785714D01*
X141404761Y-115833333D01*
X141452380Y-115880952D01*
X141500000Y-115976190D01*
X141500000Y-116261904D01*
X141452380Y-116357142D01*
X141404761Y-116404761D01*
X141309523Y-116452380D01*
X141166666Y-116452380D01*
X141928571Y-116452380D02*
X141928571Y-115785714D01*
X141928571Y-115976190D02*
X141976190Y-115880952D01*
X142023809Y-115833333D01*
X142119047Y-115785714D01*
X142214285Y-115785714D01*
X103238095Y-95500000D02*
X103142857Y-95452380D01*
X103000000Y-95452380D01*
X102857142Y-95500000D01*
X102761904Y-95595238D01*
X102714285Y-95690476D01*
X102666666Y-95880952D01*
X102666666Y-96023809D01*
X102714285Y-96214285D01*
X102761904Y-96309523D01*
X102857142Y-96404761D01*
X103000000Y-96452380D01*
X103095238Y-96452380D01*
X103238095Y-96404761D01*
X103285714Y-96357142D01*
X103285714Y-96023809D01*
X103095238Y-96023809D01*
X103714285Y-96452380D02*
X103714285Y-95452380D01*
X104285714Y-96452380D01*
X104285714Y-95452380D01*
X104761904Y-96452380D02*
X104761904Y-95452380D01*
X105000000Y-95452380D01*
X105142857Y-95500000D01*
X105238095Y-95595238D01*
X105285714Y-95690476D01*
X105333333Y-95880952D01*
X105333333Y-96023809D01*
X105285714Y-96214285D01*
X105238095Y-96309523D01*
X105142857Y-96404761D01*
X105000000Y-96452380D01*
X104761904Y-96452380D01*
X157238095Y-94500000D02*
X157142857Y-94452380D01*
X157000000Y-94452380D01*
X156857142Y-94500000D01*
X156761904Y-94595238D01*
X156714285Y-94690476D01*
X156666666Y-94880952D01*
X156666666Y-95023809D01*
X156714285Y-95214285D01*
X156761904Y-95309523D01*
X156857142Y-95404761D01*
X157000000Y-95452380D01*
X157095238Y-95452380D01*
X157238095Y-95404761D01*
X157285714Y-95357142D01*
X157285714Y-95023809D01*
X157095238Y-95023809D01*
X157714285Y-95452380D02*
X157714285Y-94452380D01*
X158285714Y-95452380D01*
X158285714Y-94452380D01*
X158761904Y-95452380D02*
X158761904Y-94452380D01*
X159000000Y-94452380D01*
X159142857Y-94500000D01*
X159238095Y-94595238D01*
X159285714Y-94690476D01*
X159333333Y-94880952D01*
X159333333Y-95023809D01*
X159285714Y-95214285D01*
X159238095Y-95309523D01*
X159142857Y-95404761D01*
X159000000Y-95452380D01*
X158761904Y-95452380D01*
X104238095Y-105500000D02*
X104142857Y-105452380D01*
X104000000Y-105452380D01*
X103857142Y-105500000D01*
X103761904Y-105595238D01*
X103714285Y-105690476D01*
X103666666Y-105880952D01*
X103666666Y-106023809D01*
X103714285Y-106214285D01*
X103761904Y-106309523D01*
X103857142Y-106404761D01*
X104000000Y-106452380D01*
X104095238Y-106452380D01*
X104238095Y-106404761D01*
X104285714Y-106357142D01*
X104285714Y-106023809D01*
X104095238Y-106023809D01*
X104714285Y-106452380D02*
X104714285Y-105452380D01*
X105285714Y-106452380D01*
X105285714Y-105452380D01*
X105761904Y-106452380D02*
X105761904Y-105452380D01*
X106000000Y-105452380D01*
X106142857Y-105500000D01*
X106238095Y-105595238D01*
X106285714Y-105690476D01*
X106333333Y-105880952D01*
X106333333Y-106023809D01*
X106285714Y-106214285D01*
X106238095Y-106309523D01*
X106142857Y-106404761D01*
X106000000Y-106452380D01*
X105761904Y-106452380D01*
X114976190Y-98452380D02*
X114785714Y-98452380D01*
X114690476Y-98500000D01*
X114642857Y-98547619D01*
X114547619Y-98690476D01*
X114500000Y-98880952D01*
X114500000Y-99261904D01*
X114547619Y-99357142D01*
X114595238Y-99404761D01*
X114690476Y-99452380D01*
X114880952Y-99452380D01*
X114976190Y-99404761D01*
X115023809Y-99357142D01*
X115071428Y-99261904D01*
X115071428Y-99023809D01*
X115023809Y-98928571D01*
X114976190Y-98880952D01*
X114880952Y-98833333D01*
X114690476Y-98833333D01*
X114595238Y-98880952D01*
X114547619Y-98928571D01*
X114500000Y-99023809D01*
X115642857Y-98880952D02*
X115547619Y-98833333D01*
X115500000Y-98785714D01*
X115452380Y-98690476D01*
X115452380Y-98642857D01*
X115500000Y-98547619D01*
X115547619Y-98500000D01*
X115642857Y-98452380D01*
X115833333Y-98452380D01*
X115928571Y-98500000D01*
X115976190Y-98547619D01*
X116023809Y-98642857D01*
X116023809Y-98690476D01*
X115976190Y-98785714D01*
X115928571Y-98833333D01*
X115833333Y-98880952D01*
X115642857Y-98880952D01*
X115547619Y-98928571D01*
X115500000Y-98976190D01*
X115452380Y-99071428D01*
X115452380Y-99261904D01*
X115500000Y-99357142D01*
X115547619Y-99404761D01*
X115642857Y-99452380D01*
X115833333Y-99452380D01*
X115928571Y-99404761D01*
X115976190Y-99357142D01*
X116023809Y-99261904D01*
X116023809Y-99071428D01*
X115976190Y-98976190D01*
X115928571Y-98928571D01*
X115833333Y-98880952D01*
X116642857Y-98452380D02*
X116738095Y-98452380D01*
X116833333Y-98500000D01*
X116880952Y-98547619D01*
X116928571Y-98642857D01*
X116976190Y-98833333D01*
X116976190Y-99071428D01*
X116928571Y-99261904D01*
X116880952Y-99357142D01*
X116833333Y-99404761D01*
X116738095Y-99452380D01*
X116642857Y-99452380D01*
X116547619Y-99404761D01*
X116500000Y-99357142D01*
X116452380Y-99261904D01*
X116404761Y-99071428D01*
X116404761Y-98833333D01*
X116452380Y-98642857D01*
X116500000Y-98547619D01*
X116547619Y-98500000D01*
X116642857Y-98452380D01*
X118595238Y-98785714D02*
X118595238Y-99452380D01*
X118166666Y-98785714D02*
X118166666Y-99309523D01*
X118214285Y-99404761D01*
X118309523Y-99452380D01*
X118452380Y-99452380D01*
X118547619Y-99404761D01*
X118595238Y-99357142D01*
X119404761Y-98928571D02*
X119071428Y-98928571D01*
X119071428Y-99452380D02*
X119071428Y-98452380D01*
X119547619Y-98452380D01*
X128833333Y-109452380D02*
X128357142Y-109452380D01*
X128357142Y-108452380D01*
X129166666Y-109452380D02*
X129166666Y-108452380D01*
X129500000Y-109166666D01*
X129833333Y-108452380D01*
X129833333Y-109452380D01*
X130261904Y-108547619D02*
X130309523Y-108500000D01*
X130404761Y-108452380D01*
X130642857Y-108452380D01*
X130738095Y-108500000D01*
X130785714Y-108547619D01*
X130833333Y-108642857D01*
X130833333Y-108738095D01*
X130785714Y-108880952D01*
X130214285Y-109452380D01*
X130833333Y-109452380D01*
X131738095Y-108452380D02*
X131261904Y-108452380D01*
X131214285Y-108928571D01*
X131261904Y-108880952D01*
X131357142Y-108833333D01*
X131595238Y-108833333D01*
X131690476Y-108880952D01*
X131738095Y-108928571D01*
X131785714Y-109023809D01*
X131785714Y-109261904D01*
X131738095Y-109357142D01*
X131690476Y-109404761D01*
X131595238Y-109452380D01*
X131357142Y-109452380D01*
X131261904Y-109404761D01*
X131214285Y-109357142D01*
X132261904Y-109452380D02*
X132452380Y-109452380D01*
X132547619Y-109404761D01*
X132595238Y-109357142D01*
X132690476Y-109214285D01*
X132738095Y-109023809D01*
X132738095Y-108642857D01*
X132690476Y-108547619D01*
X132642857Y-108500000D01*
X132547619Y-108452380D01*
X132357142Y-108452380D01*
X132261904Y-108500000D01*
X132214285Y-108547619D01*
X132166666Y-108642857D01*
X132166666Y-108880952D01*
X132214285Y-108976190D01*
X132261904Y-109023809D01*
X132357142Y-109071428D01*
X132547619Y-109071428D01*
X132642857Y-109023809D01*
X132690476Y-108976190D01*
X132738095Y-108880952D01*
X133595238Y-108452380D02*
X133404761Y-108452380D01*
X133309523Y-108500000D01*
X133261904Y-108547619D01*
X133166666Y-108690476D01*
X133119047Y-108880952D01*
X133119047Y-109261904D01*
X133166666Y-109357142D01*
X133214285Y-109404761D01*
X133309523Y-109452380D01*
X133500000Y-109452380D01*
X133595238Y-109404761D01*
X133642857Y-109357142D01*
X133690476Y-109261904D01*
X133690476Y-109023809D01*
X133642857Y-108928571D01*
X133595238Y-108880952D01*
X133500000Y-108833333D01*
X133309523Y-108833333D01*
X133214285Y-108880952D01*
X133166666Y-108928571D01*
X133119047Y-109023809D01*
X149500000Y-109547619D02*
X149547619Y-109500000D01*
X149642857Y-109452380D01*
X149880952Y-109452380D01*
X149976190Y-109500000D01*
X150023809Y-109547619D01*
X150071428Y-109642857D01*
X150071428Y-109738095D01*
X150023809Y-109880952D01*
X149452380Y-110452380D01*
X150071428Y-110452380D01*
X150452380Y-109547619D02*
X150500000Y-109500000D01*
X150595238Y-109452380D01*
X150833333Y-109452380D01*
X150928571Y-109500000D01*
X150976190Y-109547619D01*
X151023809Y-109642857D01*
X151023809Y-109738095D01*
X150976190Y-109880952D01*
X150404761Y-110452380D01*
X151023809Y-110452380D01*
X151642857Y-109452380D02*
X151738095Y-109452380D01*
X151833333Y-109500000D01*
X151880952Y-109547619D01*
X151928571Y-109642857D01*
X151976190Y-109833333D01*
X151976190Y-110071428D01*
X151928571Y-110261904D01*
X151880952Y-110357142D01*
X151833333Y-110404761D01*
X151738095Y-110452380D01*
X151642857Y-110452380D01*
X151547619Y-110404761D01*
X151500000Y-110357142D01*
X151452380Y-110261904D01*
X151404761Y-110071428D01*
X151404761Y-109833333D01*
X151452380Y-109642857D01*
X151500000Y-109547619D01*
X151547619Y-109500000D01*
X151642857Y-109452380D01*
X153595238Y-109785714D02*
X153595238Y-110452380D01*
X153166666Y-109785714D02*
X153166666Y-110309523D01*
X153214285Y-110404761D01*
X153309523Y-110452380D01*
X153452380Y-110452380D01*
X153547619Y-110404761D01*
X153595238Y-110357142D01*
X154404761Y-109928571D02*
X154071428Y-109928571D01*
X154071428Y-110452380D02*
X154071428Y-109452380D01*
X154547619Y-109452380D01*
X156714285Y-108071428D02*
X157476190Y-108071428D01*
X157095238Y-108452380D02*
X157095238Y-107690476D01*
X158428571Y-107452380D02*
X157952380Y-107452380D01*
X157904761Y-107928571D01*
X157952380Y-107880952D01*
X158047619Y-107833333D01*
X158285714Y-107833333D01*
X158380952Y-107880952D01*
X158428571Y-107928571D01*
X158476190Y-108023809D01*
X158476190Y-108261904D01*
X158428571Y-108357142D01*
X158380952Y-108404761D01*
X158285714Y-108452380D01*
X158047619Y-108452380D01*
X157952380Y-108404761D01*
X157904761Y-108357142D01*
X158761904Y-107452380D02*
X159095238Y-108452380D01*
X159428571Y-107452380D01*
X141833333Y-86452380D02*
X142452380Y-86452380D01*
X142119047Y-86833333D01*
X142261904Y-86833333D01*
X142357142Y-86880952D01*
X142404761Y-86928571D01*
X142452380Y-87023809D01*
X142452380Y-87261904D01*
X142404761Y-87357142D01*
X142357142Y-87404761D01*
X142261904Y-87452380D01*
X141976190Y-87452380D01*
X141880952Y-87404761D01*
X141833333Y-87357142D01*
X142785714Y-86452380D02*
X143404761Y-86452380D01*
X143071428Y-86833333D01*
X143214285Y-86833333D01*
X143309523Y-86880952D01*
X143357142Y-86928571D01*
X143404761Y-87023809D01*
X143404761Y-87261904D01*
X143357142Y-87357142D01*
X143309523Y-87404761D01*
X143214285Y-87452380D01*
X142928571Y-87452380D01*
X142833333Y-87404761D01*
X142785714Y-87357142D01*
X145023809Y-86785714D02*
X145023809Y-87452380D01*
X144595238Y-86785714D02*
X144595238Y-87309523D01*
X144642857Y-87404761D01*
X144738095Y-87452380D01*
X144880952Y-87452380D01*
X144976190Y-87404761D01*
X145023809Y-87357142D01*
X145500000Y-87452380D02*
X145500000Y-86452380D01*
X145500000Y-86928571D02*
X146071428Y-86928571D01*
X146071428Y-87452380D02*
X146071428Y-86452380D01*
X121857142Y-88452380D02*
X121285714Y-88452380D01*
X121571428Y-88452380D02*
X121571428Y-87452380D01*
X121476190Y-87595238D01*
X121380952Y-87690476D01*
X121285714Y-87738095D01*
X122285714Y-88452380D02*
X122285714Y-87452380D01*
X122857142Y-88452380D01*
X122857142Y-87452380D01*
X123809523Y-87452380D02*
X123333333Y-87452380D01*
X123285714Y-87928571D01*
X123333333Y-87880952D01*
X123428571Y-87833333D01*
X123666666Y-87833333D01*
X123761904Y-87880952D01*
X123809523Y-87928571D01*
X123857142Y-88023809D01*
X123857142Y-88261904D01*
X123809523Y-88357142D01*
X123761904Y-88404761D01*
X123666666Y-88452380D01*
X123428571Y-88452380D01*
X123333333Y-88404761D01*
X123285714Y-88357142D01*
X124428571Y-87880952D02*
X124333333Y-87833333D01*
X124285714Y-87785714D01*
X124238095Y-87690476D01*
X124238095Y-87642857D01*
X124285714Y-87547619D01*
X124333333Y-87500000D01*
X124428571Y-87452380D01*
X124619047Y-87452380D01*
X124714285Y-87500000D01*
X124761904Y-87547619D01*
X124809523Y-87642857D01*
X124809523Y-87690476D01*
X124761904Y-87785714D01*
X124714285Y-87833333D01*
X124619047Y-87880952D01*
X124428571Y-87880952D01*
X124333333Y-87928571D01*
X124285714Y-87976190D01*
X124238095Y-88071428D01*
X124238095Y-88261904D01*
X124285714Y-88357142D01*
X124333333Y-88404761D01*
X124428571Y-88452380D01*
X124619047Y-88452380D01*
X124714285Y-88404761D01*
X124761904Y-88357142D01*
X124809523Y-88261904D01*
X124809523Y-88071428D01*
X124761904Y-87976190D01*
X124714285Y-87928571D01*
X124619047Y-87880952D01*
X125190476Y-87547619D02*
X125238095Y-87500000D01*
X125333333Y-87452380D01*
X125571428Y-87452380D01*
X125666666Y-87500000D01*
X125714285Y-87547619D01*
X125761904Y-87642857D01*
X125761904Y-87738095D01*
X125714285Y-87880952D01*
X125142857Y-88452380D01*
X125761904Y-88452380D01*
X126142857Y-87547619D02*
X126190476Y-87500000D01*
X126285714Y-87452380D01*
X126523809Y-87452380D01*
X126619047Y-87500000D01*
X126666666Y-87547619D01*
X126714285Y-87642857D01*
X126714285Y-87738095D01*
X126666666Y-87880952D01*
X126095238Y-88452380D01*
X126714285Y-88452380D01*
X103765279Y-108452380D02*
X104098612Y-109452380D01*
X104431946Y-108452380D01*
X104765279Y-109452380D02*
X104765279Y-108785714D01*
X104765279Y-108452380D02*
X104717660Y-108500000D01*
X104765279Y-108547619D01*
X104812898Y-108500000D01*
X104765279Y-108452380D01*
X104765279Y-108547619D01*
X105241469Y-108785714D02*
X105241469Y-109452380D01*
X105241469Y-108880952D02*
X105289089Y-108833333D01*
X105384327Y-108785714D01*
X105527184Y-108785714D01*
X105622422Y-108833333D01*
X105670041Y-108928571D01*
X105670041Y-109452380D01*
%TO.C,J2*%
X152392380Y-101338333D02*
X153106666Y-101338333D01*
X153249523Y-101385952D01*
X153344761Y-101481190D01*
X153392380Y-101624047D01*
X153392380Y-101719285D01*
X152487619Y-100909761D02*
X152440000Y-100862142D01*
X152392380Y-100766904D01*
X152392380Y-100528809D01*
X152440000Y-100433571D01*
X152487619Y-100385952D01*
X152582857Y-100338333D01*
X152678095Y-100338333D01*
X152820952Y-100385952D01*
X153392380Y-100957380D01*
X153392380Y-100338333D01*
%TO.C,U1*%
X130238095Y-94782380D02*
X130238095Y-95591904D01*
X130285714Y-95687142D01*
X130333333Y-95734761D01*
X130428571Y-95782380D01*
X130619047Y-95782380D01*
X130714285Y-95734761D01*
X130761904Y-95687142D01*
X130809523Y-95591904D01*
X130809523Y-94782380D01*
X131809523Y-95782380D02*
X131238095Y-95782380D01*
X131523809Y-95782380D02*
X131523809Y-94782380D01*
X131428571Y-94925238D01*
X131333333Y-95020476D01*
X131238095Y-95068095D01*
%TO.C,C2*%
X150607142Y-108264015D02*
X150654761Y-108311634D01*
X150702380Y-108454491D01*
X150702380Y-108549729D01*
X150654761Y-108692587D01*
X150559523Y-108787825D01*
X150464285Y-108835444D01*
X150273809Y-108883063D01*
X150130952Y-108883063D01*
X149940476Y-108835444D01*
X149845238Y-108787825D01*
X149750000Y-108692587D01*
X149702380Y-108549729D01*
X149702380Y-108454491D01*
X149750000Y-108311634D01*
X149797619Y-108264015D01*
X149797619Y-107883063D02*
X149750000Y-107835444D01*
X149702380Y-107740206D01*
X149702380Y-107502110D01*
X149750000Y-107406872D01*
X149797619Y-107359253D01*
X149892857Y-107311634D01*
X149988095Y-107311634D01*
X150130952Y-107359253D01*
X150702380Y-107930682D01*
X150702380Y-107311634D01*
%TO.C,J1*%
X98392380Y-102338333D02*
X99106666Y-102338333D01*
X99249523Y-102385952D01*
X99344761Y-102481190D01*
X99392380Y-102624047D01*
X99392380Y-102719285D01*
X99392380Y-101338333D02*
X99392380Y-101909761D01*
X99392380Y-101624047D02*
X98392380Y-101624047D01*
X98535238Y-101719285D01*
X98630476Y-101814523D01*
X98678095Y-101909761D01*
%TO.C,D1*%
X113261904Y-97172380D02*
X113261904Y-96172380D01*
X113500000Y-96172380D01*
X113642857Y-96220000D01*
X113738095Y-96315238D01*
X113785714Y-96410476D01*
X113833333Y-96600952D01*
X113833333Y-96743809D01*
X113785714Y-96934285D01*
X113738095Y-97029523D01*
X113642857Y-97124761D01*
X113500000Y-97172380D01*
X113261904Y-97172380D01*
X114785714Y-97172380D02*
X114214285Y-97172380D01*
X114500000Y-97172380D02*
X114500000Y-96172380D01*
X114404761Y-96315238D01*
X114309523Y-96410476D01*
X114214285Y-96458095D01*
%TO.C,L1*%
X151552380Y-95166666D02*
X151552380Y-95642857D01*
X150552380Y-95642857D01*
X151552380Y-94309523D02*
X151552380Y-94880952D01*
X151552380Y-94595238D02*
X150552380Y-94595238D01*
X150695238Y-94690476D01*
X150790476Y-94785714D01*
X150838095Y-94880952D01*
%TO.C,C1*%
X124857142Y-107342707D02*
X124904761Y-107390326D01*
X124952380Y-107533183D01*
X124952380Y-107628421D01*
X124904761Y-107771279D01*
X124809523Y-107866517D01*
X124714285Y-107914136D01*
X124523809Y-107961755D01*
X124380952Y-107961755D01*
X124190476Y-107914136D01*
X124095238Y-107866517D01*
X124000000Y-107771279D01*
X123952380Y-107628421D01*
X123952380Y-107533183D01*
X124000000Y-107390326D01*
X124047619Y-107342707D01*
X124952380Y-106390326D02*
X124952380Y-106961755D01*
X124952380Y-106676041D02*
X123952380Y-106676041D01*
X124095238Y-106771279D01*
X124190476Y-106866517D01*
X124238095Y-106961755D01*
D11*
%TO.C,J2*%
X156000000Y-106145000D02*
X156000000Y-95865000D01*
X160000000Y-106145000D02*
X160000000Y-95865000D01*
X153940000Y-106145000D02*
X162060000Y-106145000D01*
X162300000Y-106385000D02*
X162300000Y-104385000D01*
X158976000Y-99645000D02*
X159069000Y-99739000D01*
X162060000Y-106145000D02*
X162060000Y-95865000D01*
X156931000Y-97190000D02*
X157024000Y-97284000D01*
X159216000Y-99475000D02*
X159274000Y-99534000D01*
X153940000Y-95865000D02*
X162060000Y-95865000D01*
X153940000Y-106145000D02*
X153940000Y-95865000D01*
X160060000Y-106385000D02*
X162300000Y-106385000D01*
X156725000Y-97395000D02*
X156784000Y-97454000D01*
X156516000Y-102756000D02*
G75*
G03*
X156516047Y-104334089I1483995J-789000D01*
G01*
X158789000Y-102061000D02*
G75*
G03*
X157210911Y-102061047I-789000J-1483995D01*
G01*
X159680000Y-103545000D02*
G75*
G03*
X159483352Y-102756288I-1679991J2D01*
G01*
X159484000Y-104334000D02*
G75*
G03*
X159680450Y-103515617I-1483995J788998D01*
G01*
X157211000Y-105029000D02*
G75*
G03*
X158789089Y-105028953I789000J1483995D01*
G01*
X159680000Y-98465000D02*
G75*
G03*
X159680000Y-98465000I-1680000J0D01*
G01*
%TO.C,U1*%
X136120000Y-96330000D02*
X136120000Y-100971000D01*
X127600000Y-100971000D02*
X127600000Y-103601000D01*
X134400000Y-100971000D02*
X134400000Y-103585000D01*
X125879000Y-97839000D02*
X136120000Y-97839000D01*
X130365000Y-100971000D02*
X131635000Y-100971000D01*
X131000000Y-100971000D02*
X131000000Y-103585000D01*
X133765000Y-100971000D02*
X136120000Y-100971000D01*
X125879000Y-100971000D02*
X128235000Y-100971000D01*
X132850000Y-96330000D02*
X132850000Y-97839000D01*
X129150000Y-96330000D02*
X129150000Y-97839000D01*
X125879000Y-96330000D02*
X136120000Y-96330000D01*
X125879000Y-96330000D02*
X125879000Y-100971000D01*
%TO.C,C2*%
X143960000Y-110578349D02*
X141750000Y-110578349D01*
X143960000Y-110698349D02*
X141844000Y-110698349D01*
X148985000Y-108978349D02*
X141015000Y-108978349D01*
X148562000Y-110098349D02*
X146040000Y-110098349D01*
X143960000Y-110498349D02*
X141691000Y-110498349D01*
X146645000Y-111858349D02*
X143355000Y-111858349D01*
X149077000Y-108257349D02*
X140923000Y-108257349D01*
X148976000Y-109018349D02*
X141024000Y-109018349D01*
X149052000Y-108577349D02*
X140948000Y-108577349D01*
X143960000Y-110258349D02*
X141531000Y-110258349D01*
X148821000Y-109538349D02*
X141179000Y-109538349D01*
X146813000Y-111778349D02*
X143187000Y-111778349D01*
X145948000Y-112098349D02*
X144052000Y-112098349D01*
X148835000Y-109498349D02*
X141165000Y-109498349D01*
X147945000Y-110938349D02*
X146040000Y-110938349D01*
X147715000Y-104087651D02*
X146915000Y-104087651D01*
X148722000Y-109778349D02*
X146040000Y-109778349D01*
X143960000Y-111458349D02*
X142655000Y-111458349D01*
X147166000Y-111578349D02*
X146040000Y-111578349D01*
X143960000Y-111178349D02*
X142303000Y-111178349D01*
X143960000Y-110418349D02*
X141635000Y-110418349D01*
X147907000Y-110978349D02*
X146040000Y-110978349D01*
X148889000Y-109338349D02*
X141111000Y-109338349D01*
X148189000Y-110658349D02*
X146040000Y-110658349D01*
X143960000Y-109698349D02*
X141243000Y-109698349D01*
X148019000Y-110858349D02*
X146040000Y-110858349D01*
X147651000Y-111218349D02*
X146040000Y-111218349D01*
X148365000Y-110418349D02*
X146040000Y-110418349D01*
X149057000Y-108537349D02*
X140943000Y-108537349D01*
X143960000Y-111418349D02*
X142600000Y-111418349D01*
X148790000Y-109618349D02*
X146040000Y-109618349D01*
X148925000Y-109218349D02*
X141075000Y-109218349D01*
X143960000Y-110938349D02*
X142055000Y-110938349D01*
X143960000Y-110778349D02*
X141910000Y-110778349D01*
X148877000Y-109378349D02*
X141123000Y-109378349D01*
X146731000Y-111818349D02*
X143269000Y-111818349D01*
X143960000Y-109818349D02*
X141296000Y-109818349D01*
X143960000Y-111098349D02*
X142216000Y-111098349D01*
X148740000Y-109738349D02*
X146040000Y-109738349D01*
X149042000Y-108657349D02*
X140958000Y-108657349D01*
X143960000Y-109738349D02*
X141260000Y-109738349D01*
X143960000Y-111298349D02*
X142444000Y-111298349D01*
X149037000Y-108697349D02*
X140963000Y-108697349D01*
X148309000Y-110498349D02*
X146040000Y-110498349D01*
X146552000Y-111898349D02*
X143448000Y-111898349D01*
X149080000Y-108097349D02*
X140920000Y-108097349D01*
X143960000Y-110818349D02*
X141945000Y-110818349D01*
X143960000Y-109978349D02*
X141373000Y-109978349D01*
X143960000Y-111338349D02*
X142495000Y-111338349D01*
X147400000Y-111418349D02*
X146040000Y-111418349D01*
X148686000Y-109858349D02*
X146040000Y-109858349D01*
X148850000Y-109458349D02*
X141150000Y-109458349D01*
X143960000Y-109858349D02*
X141314000Y-109858349D01*
X148156000Y-110698349D02*
X146040000Y-110698349D01*
X148540000Y-110138349D02*
X146040000Y-110138349D01*
X148517000Y-110178349D02*
X146040000Y-110178349D01*
X143960000Y-109898349D02*
X141334000Y-109898349D01*
X143960000Y-109938349D02*
X141353000Y-109938349D01*
X148947000Y-109138349D02*
X141053000Y-109138349D01*
X147826000Y-111058349D02*
X146040000Y-111058349D01*
X143960000Y-109618349D02*
X141210000Y-109618349D01*
X149068000Y-108417349D02*
X140932000Y-108417349D01*
X143960000Y-111618349D02*
X142898000Y-111618349D01*
X148863000Y-109418349D02*
X141137000Y-109418349D01*
X149080000Y-108137349D02*
X140920000Y-108137349D01*
X148666000Y-109898349D02*
X146040000Y-109898349D01*
X149030000Y-108737349D02*
X140970000Y-108737349D01*
X148902000Y-109298349D02*
X141098000Y-109298349D01*
X148280000Y-110538349D02*
X146040000Y-110538349D01*
X146229000Y-112018349D02*
X143771000Y-112018349D01*
X148493000Y-110218349D02*
X146040000Y-110218349D01*
X148957000Y-109098349D02*
X141043000Y-109098349D01*
X149080000Y-108177349D02*
X140920000Y-108177349D01*
X143960000Y-110898349D02*
X142017000Y-110898349D01*
X143960000Y-110618349D02*
X141780000Y-110618349D01*
X148090000Y-110778349D02*
X146040000Y-110778349D01*
X147102000Y-111618349D02*
X146040000Y-111618349D01*
X147556000Y-111298349D02*
X146040000Y-111298349D01*
X143960000Y-111498349D02*
X142713000Y-111498349D01*
X147315000Y-103687651D02*
X147315000Y-104487651D01*
X148967000Y-109058349D02*
X141033000Y-109058349D01*
X149048000Y-108617349D02*
X140952000Y-108617349D01*
X147228000Y-111538349D02*
X146040000Y-111538349D01*
X147287000Y-111498349D02*
X146040000Y-111498349D01*
X148805000Y-109578349D02*
X146040000Y-109578349D01*
X149071000Y-108377349D02*
X140929000Y-108377349D01*
X148055000Y-110818349D02*
X146040000Y-110818349D01*
X148444000Y-110298349D02*
X146040000Y-110298349D01*
X147741000Y-111138349D02*
X146040000Y-111138349D01*
X143960000Y-110458349D02*
X141662000Y-110458349D01*
X143960000Y-110378349D02*
X141608000Y-110378349D01*
X146453000Y-111938349D02*
X143547000Y-111938349D01*
X146964000Y-111698349D02*
X143036000Y-111698349D01*
X143960000Y-110218349D02*
X141507000Y-110218349D01*
X146098000Y-112058349D02*
X143902000Y-112058349D01*
X143960000Y-111018349D02*
X142133000Y-111018349D01*
X148757000Y-109698349D02*
X146040000Y-109698349D01*
X148704000Y-109818349D02*
X146040000Y-109818349D01*
X147454000Y-111378349D02*
X146040000Y-111378349D01*
X143960000Y-111378349D02*
X142546000Y-111378349D01*
X149061000Y-108497349D02*
X140939000Y-108497349D01*
X148469000Y-110258349D02*
X146040000Y-110258349D01*
X149065000Y-108457349D02*
X140935000Y-108457349D01*
X143960000Y-110538349D02*
X141720000Y-110538349D01*
X143960000Y-111058349D02*
X142174000Y-111058349D01*
X148606000Y-110018349D02*
X146040000Y-110018349D01*
X148627000Y-109978349D02*
X146040000Y-109978349D01*
X147784000Y-111098349D02*
X146040000Y-111098349D01*
X147697000Y-111178349D02*
X146040000Y-111178349D01*
X148250000Y-110578349D02*
X146040000Y-110578349D01*
X149010000Y-108858349D02*
X140990000Y-108858349D01*
X143960000Y-110978349D02*
X142093000Y-110978349D01*
X148774000Y-109658349D02*
X146040000Y-109658349D01*
X143960000Y-110018349D02*
X141394000Y-110018349D01*
X149079000Y-108217349D02*
X140921000Y-108217349D01*
X143960000Y-111258349D02*
X142396000Y-111258349D01*
X148994000Y-108938349D02*
X141006000Y-108938349D01*
X143960000Y-109778349D02*
X141278000Y-109778349D01*
X148392000Y-110378349D02*
X146040000Y-110378349D01*
X147983000Y-110898349D02*
X146040000Y-110898349D01*
X148914000Y-109258349D02*
X141086000Y-109258349D01*
X145533000Y-112178349D02*
X144467000Y-112178349D01*
X143960000Y-109578349D02*
X141195000Y-109578349D01*
X149024000Y-108777349D02*
X140976000Y-108777349D01*
X143960000Y-110338349D02*
X141582000Y-110338349D01*
X146346000Y-111978349D02*
X143654000Y-111978349D01*
X143960000Y-111538349D02*
X142772000Y-111538349D01*
X143960000Y-111578349D02*
X142834000Y-111578349D01*
X143960000Y-110658349D02*
X141811000Y-110658349D01*
X148418000Y-110338349D02*
X146040000Y-110338349D01*
X149076000Y-108297349D02*
X140924000Y-108297349D01*
X147604000Y-111258349D02*
X146040000Y-111258349D01*
X145768000Y-112138349D02*
X144232000Y-112138349D01*
X143960000Y-110058349D02*
X141416000Y-110058349D01*
X149074000Y-108337349D02*
X140926000Y-108337349D01*
X149017000Y-108818349D02*
X140983000Y-108818349D01*
X148647000Y-109938349D02*
X146040000Y-109938349D01*
X148936000Y-109178349D02*
X141064000Y-109178349D01*
X146890000Y-111738349D02*
X143110000Y-111738349D01*
X143960000Y-111138349D02*
X142259000Y-111138349D01*
X147034000Y-111658349D02*
X142966000Y-111658349D01*
X147505000Y-111338349D02*
X146040000Y-111338349D01*
X143960000Y-111218349D02*
X142349000Y-111218349D01*
X148338000Y-110458349D02*
X146040000Y-110458349D01*
X148220000Y-110618349D02*
X146040000Y-110618349D01*
X143960000Y-110098349D02*
X141438000Y-110098349D01*
X148124000Y-110738349D02*
X146040000Y-110738349D01*
X148584000Y-110058349D02*
X146040000Y-110058349D01*
X147345000Y-111458349D02*
X146040000Y-111458349D01*
X143960000Y-109658349D02*
X141226000Y-109658349D01*
X143960000Y-110138349D02*
X141460000Y-110138349D01*
X143960000Y-110178349D02*
X141483000Y-110178349D01*
X143960000Y-110858349D02*
X141981000Y-110858349D01*
X143960000Y-110298349D02*
X141556000Y-110298349D01*
X143960000Y-110738349D02*
X141876000Y-110738349D01*
X149002000Y-108898349D02*
X140998000Y-108898349D01*
X147867000Y-111018349D02*
X146040000Y-111018349D01*
X149120000Y-108097349D02*
G75*
G03*
X149120000Y-108097349I-4120000J0D01*
G01*
%TO.C,J1*%
X105680000Y-99465000D02*
G75*
G03*
X105680000Y-99465000I-1680000J0D01*
G01*
X104789000Y-103061000D02*
G75*
G03*
X103210911Y-103061047I-789000J-1483995D01*
G01*
X103211000Y-106029000D02*
G75*
G03*
X104789089Y-106028953I789000J1483995D01*
G01*
X105680000Y-104545000D02*
G75*
G03*
X105483352Y-103756288I-1679991J2D01*
G01*
X105484000Y-105334000D02*
G75*
G03*
X105680450Y-104515617I-1483995J788998D01*
G01*
X102516000Y-103756000D02*
G75*
G03*
X102516047Y-105334089I1483995J-789000D01*
G01*
X102725000Y-98395000D02*
X102784000Y-98454000D01*
X99940000Y-96865000D02*
X108060000Y-96865000D01*
X104976000Y-100645000D02*
X105069000Y-100739000D01*
X99940000Y-107145000D02*
X108060000Y-107145000D01*
X105216000Y-100475000D02*
X105274000Y-100534000D01*
X106000000Y-107145000D02*
X106000000Y-96865000D01*
X108300000Y-107385000D02*
X108300000Y-105385000D01*
X102000000Y-107145000D02*
X102000000Y-96865000D01*
X99940000Y-107145000D02*
X99940000Y-96865000D01*
X102931000Y-98190000D02*
X103024000Y-98284000D01*
X108060000Y-107145000D02*
X108060000Y-96865000D01*
X106060000Y-107385000D02*
X108300000Y-107385000D01*
%TO.C,D1*%
X117445000Y-95720000D02*
X117445000Y-90280000D01*
X109130000Y-95720000D02*
X118870000Y-95720000D01*
X118870000Y-95720000D02*
X118870000Y-90280000D01*
X118870000Y-90280000D02*
X109130000Y-90280000D01*
X119780000Y-93000000D02*
X118870000Y-93000000D01*
X117325000Y-95720000D02*
X117325000Y-90280000D01*
X117205000Y-95720000D02*
X117205000Y-90280000D01*
X109130000Y-90280000D02*
X109130000Y-95720000D01*
X108220000Y-93000000D02*
X109130000Y-93000000D01*
%TO.C,L1*%
X150300000Y-101300000D02*
X147300000Y-101300000D01*
X147300000Y-88700000D02*
X150300000Y-88700000D01*
X137700000Y-88700000D02*
X140700000Y-88700000D01*
X140700000Y-101300000D02*
X137700000Y-101300000D01*
X150300000Y-88700000D02*
X150300000Y-101300000D01*
X137700000Y-101300000D02*
X137700000Y-88700000D01*
%TO.C,C1*%
X119312000Y-113097041D02*
X114688000Y-113097041D01*
X115560000Y-109217041D02*
X111005000Y-109217041D01*
X122828000Y-109657041D02*
X118440000Y-109657041D01*
X115560000Y-110497041D02*
X111603000Y-110497041D01*
X122012000Y-111057041D02*
X118440000Y-111057041D01*
X121449000Y-111697041D02*
X112551000Y-111697041D01*
X115560000Y-110337041D02*
X111509000Y-110337041D01*
X122421000Y-110457041D02*
X118440000Y-110457041D01*
X123201000Y-108457041D02*
X118440000Y-108457041D01*
X119504000Y-113017041D02*
X114496000Y-113017041D01*
X123306000Y-107736041D02*
X110694000Y-107736041D01*
X121918000Y-111177041D02*
X112082000Y-111177041D01*
X115560000Y-110897041D02*
X111869000Y-110897041D01*
X120140000Y-112697041D02*
X113860000Y-112697041D01*
X121408000Y-111737041D02*
X112592000Y-111737041D01*
X115560000Y-108977041D02*
X110929000Y-108977041D01*
X123245000Y-108217041D02*
X110755000Y-108217041D01*
X115560000Y-109377041D02*
X111061000Y-109377041D01*
X115560000Y-109857041D02*
X111261000Y-109857041D01*
X117317000Y-113537041D02*
X116683000Y-113537041D01*
X120696000Y-112337041D02*
X113304000Y-112337041D01*
X115560000Y-108897041D02*
X110906000Y-108897041D01*
X122811000Y-109697041D02*
X118440000Y-109697041D01*
X122491000Y-110337041D02*
X118440000Y-110337041D01*
X122188000Y-110817041D02*
X118440000Y-110817041D01*
X123280000Y-107977041D02*
X110720000Y-107977041D01*
X123285000Y-107937041D02*
X110715000Y-107937041D01*
X122682000Y-109977041D02*
X118440000Y-109977041D01*
X115560000Y-110217041D02*
X111442000Y-110217041D01*
X115560000Y-110377041D02*
X111532000Y-110377041D01*
X123059000Y-109017041D02*
X118440000Y-109017041D01*
X119921000Y-112817041D02*
X114079000Y-112817041D01*
X122243000Y-110737041D02*
X118440000Y-110737041D01*
X123008000Y-109177041D02*
X118440000Y-109177041D01*
X119100000Y-113177041D02*
X114900000Y-113177041D01*
X122967000Y-109297041D02*
X118440000Y-109297041D01*
X115560000Y-110777041D02*
X111784000Y-110777041D01*
X122662000Y-110017041D02*
X118440000Y-110017041D01*
X115560000Y-109417041D02*
X111076000Y-109417041D01*
X122468000Y-110377041D02*
X118440000Y-110377041D01*
X123146000Y-108697041D02*
X118440000Y-108697041D01*
X123309000Y-107696041D02*
X110691000Y-107696041D01*
X115560000Y-109977041D02*
X111318000Y-109977041D01*
X121567000Y-111577041D02*
X112433000Y-111577041D01*
X123105000Y-108857041D02*
X118440000Y-108857041D01*
X122601000Y-110137041D02*
X118440000Y-110137041D01*
X122861000Y-109577041D02*
X118440000Y-109577041D01*
X123216000Y-108377041D02*
X118440000Y-108377041D01*
X121007000Y-112097041D02*
X112993000Y-112097041D01*
X115560000Y-109097041D02*
X110966000Y-109097041D01*
X115560000Y-108537041D02*
X110816000Y-108537041D01*
X115560000Y-108377041D02*
X110784000Y-108377041D01*
X115560000Y-109457041D02*
X111092000Y-109457041D01*
X120464000Y-112497041D02*
X113536000Y-112497041D01*
X123312000Y-107656041D02*
X110688000Y-107656041D01*
X123209000Y-108417041D02*
X118440000Y-108417041D01*
X119764000Y-112897041D02*
X114236000Y-112897041D01*
X122939000Y-109377041D02*
X118440000Y-109377041D01*
X123137000Y-108737041D02*
X118440000Y-108737041D01*
X115560000Y-110697041D02*
X111730000Y-110697041D01*
X115560000Y-108937041D02*
X110917000Y-108937041D01*
X115560000Y-109577041D02*
X111139000Y-109577041D01*
X121367000Y-111777041D02*
X112633000Y-111777041D01*
X121950000Y-111137041D02*
X112050000Y-111137041D01*
X123315000Y-107616041D02*
X110685000Y-107616041D01*
X121605000Y-111537041D02*
X112395000Y-111537041D01*
X119410000Y-113057041D02*
X114590000Y-113057041D01*
X121982000Y-111097041D02*
X118440000Y-111097041D01*
X115560000Y-110577041D02*
X111653000Y-110577041D01*
X122296000Y-110657041D02*
X118440000Y-110657041D01*
X123302000Y-107776041D02*
X110698000Y-107776041D01*
X123330000Y-107256041D02*
X110670000Y-107256041D01*
X115560000Y-110617041D02*
X111678000Y-110617041D01*
X122793000Y-109737041D02*
X118440000Y-109737041D01*
X121642000Y-111497041D02*
X112358000Y-111497041D01*
X120208000Y-112657041D02*
X113792000Y-112657041D01*
X120575000Y-100358959D02*
X120575000Y-101608959D01*
X122397000Y-110497041D02*
X118440000Y-110497041D01*
X115560000Y-110417041D02*
X111555000Y-110417041D01*
X121678000Y-111457041D02*
X112322000Y-111457041D01*
X120524000Y-112457041D02*
X113476000Y-112457041D01*
X115560000Y-108617041D02*
X110834000Y-108617041D01*
X123328000Y-107336041D02*
X110672000Y-107336041D01*
X122995000Y-109217041D02*
X118440000Y-109217041D01*
X115560000Y-109297041D02*
X111033000Y-109297041D01*
X115560000Y-111017041D02*
X111957000Y-111017041D01*
X121785000Y-111337041D02*
X112215000Y-111337041D01*
X115560000Y-109257041D02*
X111019000Y-109257041D01*
X121055000Y-112057041D02*
X112945000Y-112057041D01*
X118984000Y-113217041D02*
X115016000Y-113217041D01*
X120640000Y-112377041D02*
X113360000Y-112377041D01*
X122131000Y-110897041D02*
X118440000Y-110897041D01*
X115560000Y-110737041D02*
X111757000Y-110737041D01*
X115560000Y-109937041D02*
X111298000Y-109937041D01*
X123116000Y-108817041D02*
X118440000Y-108817041D01*
X123326000Y-107416041D02*
X110674000Y-107416041D01*
X122758000Y-109817041D02*
X118440000Y-109817041D01*
X121325000Y-111817041D02*
X112675000Y-111817041D01*
X123238000Y-108257041D02*
X118440000Y-108257041D01*
X123298000Y-107816041D02*
X110702000Y-107816041D01*
X118583000Y-113337041D02*
X115417000Y-113337041D01*
X115560000Y-109657041D02*
X111172000Y-109657041D01*
X121714000Y-111417041D02*
X112286000Y-111417041D01*
X115560000Y-110297041D02*
X111486000Y-110297041D01*
X120907000Y-112177041D02*
X113093000Y-112177041D01*
X115560000Y-110257041D02*
X111464000Y-110257041D01*
X122347000Y-110577041D02*
X118440000Y-110577041D01*
X122216000Y-110777041D02*
X118440000Y-110777041D01*
X120069000Y-112737041D02*
X113931000Y-112737041D01*
X115560000Y-109617041D02*
X111155000Y-109617041D01*
X115560000Y-109017041D02*
X110941000Y-109017041D01*
X122702000Y-109937041D02*
X118440000Y-109937041D01*
X118861000Y-113257041D02*
X115139000Y-113257041D01*
X118241000Y-113417041D02*
X115759000Y-113417041D01*
X123318000Y-107576041D02*
X110682000Y-107576041D01*
X121102000Y-112017041D02*
X112898000Y-112017041D01*
X123294000Y-107856041D02*
X110706000Y-107856041D01*
X115560000Y-109737041D02*
X111207000Y-109737041D01*
X120957000Y-112137041D02*
X113043000Y-112137041D01*
X123175000Y-108577041D02*
X118440000Y-108577041D01*
X123156000Y-108657041D02*
X118440000Y-108657041D01*
X119594000Y-112977041D02*
X114406000Y-112977041D01*
X115560000Y-108857041D02*
X110895000Y-108857041D01*
X120275000Y-112617041D02*
X113725000Y-112617041D01*
X123047000Y-109057041D02*
X118440000Y-109057041D01*
X122953000Y-109337041D02*
X118440000Y-109337041D01*
X115560000Y-110097041D02*
X111378000Y-110097041D01*
X122514000Y-110297041D02*
X118440000Y-110297041D01*
X121489000Y-111657041D02*
X112511000Y-111657041D01*
X122981000Y-109257041D02*
X118440000Y-109257041D01*
X123330000Y-107176041D02*
X110670000Y-107176041D01*
X122043000Y-111017041D02*
X118440000Y-111017041D01*
X115560000Y-110977041D02*
X111927000Y-110977041D01*
X123327000Y-107376041D02*
X110673000Y-107376041D01*
X122558000Y-110217041D02*
X118440000Y-110217041D01*
X122536000Y-110257041D02*
X118440000Y-110257041D01*
X115560000Y-110537041D02*
X111628000Y-110537041D01*
X115560000Y-108497041D02*
X110808000Y-108497041D01*
X122580000Y-110177041D02*
X118440000Y-110177041D01*
X115560000Y-110177041D02*
X111420000Y-110177041D01*
X115560000Y-109137041D02*
X110979000Y-109137041D01*
X123231000Y-108297041D02*
X118440000Y-108297041D01*
X123126000Y-108777041D02*
X118440000Y-108777041D01*
X122776000Y-109777041D02*
X118440000Y-109777041D01*
X120750000Y-112297041D02*
X113250000Y-112297041D01*
X122073000Y-110977041D02*
X118440000Y-110977041D01*
X115560000Y-111097041D02*
X112018000Y-111097041D01*
X121194000Y-111937041D02*
X112806000Y-111937041D01*
X115560000Y-108737041D02*
X110863000Y-108737041D01*
X122845000Y-109617041D02*
X118440000Y-109617041D01*
X121852000Y-111257041D02*
X112148000Y-111257041D01*
X119996000Y-112777041D02*
X114004000Y-112777041D01*
X123083000Y-108937041D02*
X118440000Y-108937041D01*
X115560000Y-110457041D02*
X111579000Y-110457041D01*
X121885000Y-111217041D02*
X112115000Y-111217041D01*
X115560000Y-108457041D02*
X110799000Y-108457041D01*
X115560000Y-109177041D02*
X110992000Y-109177041D01*
X119681000Y-112937041D02*
X114319000Y-112937041D01*
X123034000Y-109097041D02*
X118440000Y-109097041D01*
X118728000Y-113297041D02*
X115272000Y-113297041D01*
X122270000Y-110697041D02*
X118440000Y-110697041D01*
X121282000Y-111857041D02*
X112718000Y-111857041D01*
X123094000Y-108897041D02*
X118440000Y-108897041D01*
X123258000Y-108137041D02*
X110742000Y-108137041D01*
X115560000Y-110017041D02*
X111338000Y-110017041D01*
X115560000Y-110057041D02*
X111358000Y-110057041D01*
X122721000Y-109897041D02*
X118440000Y-109897041D01*
X121528000Y-111617041D02*
X112472000Y-111617041D01*
X122642000Y-110057041D02*
X118440000Y-110057041D01*
X123290000Y-107897041D02*
X110710000Y-107897041D01*
X122924000Y-109417041D02*
X118440000Y-109417041D01*
X115560000Y-108817041D02*
X110884000Y-108817041D01*
X123071000Y-108977041D02*
X118440000Y-108977041D01*
X121819000Y-111297041D02*
X112181000Y-111297041D01*
X122908000Y-109457041D02*
X118440000Y-109457041D01*
X115560000Y-110137041D02*
X111399000Y-110137041D01*
X115560000Y-108577041D02*
X110825000Y-108577041D01*
X122445000Y-110417041D02*
X118440000Y-110417041D01*
X122893000Y-109497041D02*
X118440000Y-109497041D01*
X115560000Y-109777041D02*
X111224000Y-109777041D01*
X120804000Y-112257041D02*
X113196000Y-112257041D01*
X115560000Y-108337041D02*
X110776000Y-108337041D01*
X115560000Y-108417041D02*
X110791000Y-108417041D01*
X117757000Y-113497041D02*
X116243000Y-113497041D01*
X119209000Y-113137041D02*
X114791000Y-113137041D01*
X123184000Y-108537041D02*
X118440000Y-108537041D01*
X115560000Y-109897041D02*
X111279000Y-109897041D01*
X118028000Y-113457041D02*
X115972000Y-113457041D01*
X123275000Y-108017041D02*
X110725000Y-108017041D01*
X115560000Y-109057041D02*
X110953000Y-109057041D01*
X123269000Y-108057041D02*
X110731000Y-108057041D01*
X123320000Y-107536041D02*
X110680000Y-107536041D01*
X115560000Y-108697041D02*
X110854000Y-108697041D01*
X115560000Y-109697041D02*
X111189000Y-109697041D01*
X122372000Y-110537041D02*
X118440000Y-110537041D01*
X122877000Y-109537041D02*
X118440000Y-109537041D01*
X115560000Y-110937041D02*
X111898000Y-110937041D01*
X115560000Y-111057041D02*
X111988000Y-111057041D01*
X115560000Y-110857041D02*
X111840000Y-110857041D01*
X120402000Y-112537041D02*
X113598000Y-112537041D01*
X115560000Y-109537041D02*
X111123000Y-109537041D01*
X122160000Y-110857041D02*
X118440000Y-110857041D01*
X115560000Y-108657041D02*
X110844000Y-108657041D01*
X121750000Y-111377041D02*
X112250000Y-111377041D01*
X122322000Y-110617041D02*
X118440000Y-110617041D01*
X122739000Y-109857041D02*
X118440000Y-109857041D01*
X115560000Y-108777041D02*
X110874000Y-108777041D01*
X120583000Y-112417041D02*
X113417000Y-112417041D01*
X120339000Y-112577041D02*
X113661000Y-112577041D01*
X115560000Y-110817041D02*
X111812000Y-110817041D01*
X123330000Y-107216041D02*
X110670000Y-107216041D01*
X123324000Y-107456041D02*
X110676000Y-107456041D01*
X123329000Y-107296041D02*
X110671000Y-107296041D01*
X123252000Y-108177041D02*
X110748000Y-108177041D01*
X121148000Y-111977041D02*
X112852000Y-111977041D01*
X115560000Y-109497041D02*
X111107000Y-109497041D01*
X115560000Y-108297041D02*
X110769000Y-108297041D01*
X119844000Y-112857041D02*
X114156000Y-112857041D01*
X115560000Y-109817041D02*
X111242000Y-109817041D01*
X120856000Y-112217041D02*
X113144000Y-112217041D01*
X123322000Y-107496041D02*
X110678000Y-107496041D01*
X121200000Y-100983959D02*
X119950000Y-100983959D01*
X121238000Y-111897041D02*
X112762000Y-111897041D01*
X123192000Y-108497041D02*
X118440000Y-108497041D01*
X115560000Y-110657041D02*
X111704000Y-110657041D01*
X122102000Y-110937041D02*
X118440000Y-110937041D01*
X123021000Y-109137041D02*
X118440000Y-109137041D01*
X123224000Y-108337041D02*
X118440000Y-108337041D01*
X122622000Y-110097041D02*
X118440000Y-110097041D01*
X123264000Y-108097041D02*
X110736000Y-108097041D01*
X118422000Y-113377041D02*
X115578000Y-113377041D01*
X115560000Y-108257041D02*
X110762000Y-108257041D01*
X115560000Y-109337041D02*
X111047000Y-109337041D01*
X123166000Y-108617041D02*
X118440000Y-108617041D01*
X123370000Y-107176041D02*
G75*
G03*
X123370000Y-107176041I-6370000J0D01*
G01*
%TD*%
M02*
