%TF.GenerationSoftware,KiCad,Pcbnew,(6.0.2)*%
%TF.CreationDate,2022-08-07T03:32:02+03:00*%
%TF.ProjectId,LM2596_invertingBuck_5,4c4d3235-3936-45f6-996e-76657274696e,rev?*%
%TF.SameCoordinates,Original*%
%TF.FileFunction,Legend,Top*%
%TF.FilePolarity,Positive*%
%FSLAX46Y46*%
G04 Gerber Fmt 4.6, Leading zero omitted, Abs format (unit mm)*
G04 Created by KiCad (PCBNEW (6.0.2)) date 2022-08-07 03:32:02*
%MOMM*%
%LPD*%
G01*
G04 APERTURE LIST*
%ADD10C,0.150000*%
%ADD11C,0.120000*%
G04 APERTURE END LIST*
D10*
X134095238Y-87452380D02*
X134428571Y-88452380D01*
X134761904Y-87452380D01*
X134857142Y-88547619D02*
X135619047Y-88547619D01*
X136000000Y-88452380D02*
X135904761Y-88404761D01*
X135857142Y-88357142D01*
X135809523Y-88261904D01*
X135809523Y-87976190D01*
X135857142Y-87880952D01*
X135904761Y-87833333D01*
X136000000Y-87785714D01*
X136142857Y-87785714D01*
X136238095Y-87833333D01*
X136285714Y-87880952D01*
X136333333Y-87976190D01*
X136333333Y-88261904D01*
X136285714Y-88357142D01*
X136238095Y-88404761D01*
X136142857Y-88452380D01*
X136000000Y-88452380D01*
X137190476Y-87785714D02*
X137190476Y-88452380D01*
X136761904Y-87785714D02*
X136761904Y-88309523D01*
X136809523Y-88404761D01*
X136904761Y-88452380D01*
X137047619Y-88452380D01*
X137142857Y-88404761D01*
X137190476Y-88357142D01*
X137523809Y-87785714D02*
X137904761Y-87785714D01*
X137666666Y-87452380D02*
X137666666Y-88309523D01*
X137714285Y-88404761D01*
X137809523Y-88452380D01*
X137904761Y-88452380D01*
X135238095Y-101500000D02*
X135142857Y-101452380D01*
X135000000Y-101452380D01*
X134857142Y-101500000D01*
X134761904Y-101595238D01*
X134714285Y-101690476D01*
X134666666Y-101880952D01*
X134666666Y-102023809D01*
X134714285Y-102214285D01*
X134761904Y-102309523D01*
X134857142Y-102404761D01*
X135000000Y-102452380D01*
X135095238Y-102452380D01*
X135238095Y-102404761D01*
X135285714Y-102357142D01*
X135285714Y-102023809D01*
X135095238Y-102023809D01*
X135714285Y-102452380D02*
X135714285Y-101452380D01*
X136285714Y-102452380D01*
X136285714Y-101452380D01*
X136761904Y-102452380D02*
X136761904Y-101452380D01*
X137000000Y-101452380D01*
X137142857Y-101500000D01*
X137238095Y-101595238D01*
X137285714Y-101690476D01*
X137333333Y-101880952D01*
X137333333Y-102023809D01*
X137285714Y-102214285D01*
X137238095Y-102309523D01*
X137142857Y-102404761D01*
X137000000Y-102452380D01*
X136761904Y-102452380D01*
X95595238Y-80452380D02*
X95928571Y-81452380D01*
X96261904Y-80452380D01*
X96357142Y-81547619D02*
X97119047Y-81547619D01*
X97357142Y-81452380D02*
X97357142Y-80785714D01*
X97357142Y-80452380D02*
X97309523Y-80500000D01*
X97357142Y-80547619D01*
X97404761Y-80500000D01*
X97357142Y-80452380D01*
X97357142Y-80547619D01*
X97833333Y-80785714D02*
X97833333Y-81452380D01*
X97833333Y-80880952D02*
X97880952Y-80833333D01*
X97976190Y-80785714D01*
X98119047Y-80785714D01*
X98214285Y-80833333D01*
X98261904Y-80928571D01*
X98261904Y-81452380D01*
X96238095Y-94500000D02*
X96142857Y-94452380D01*
X96000000Y-94452380D01*
X95857142Y-94500000D01*
X95761904Y-94595238D01*
X95714285Y-94690476D01*
X95666666Y-94880952D01*
X95666666Y-95023809D01*
X95714285Y-95214285D01*
X95761904Y-95309523D01*
X95857142Y-95404761D01*
X96000000Y-95452380D01*
X96095238Y-95452380D01*
X96238095Y-95404761D01*
X96285714Y-95357142D01*
X96285714Y-95023809D01*
X96095238Y-95023809D01*
X96714285Y-95452380D02*
X96714285Y-94452380D01*
X97285714Y-95452380D01*
X97285714Y-94452380D01*
X97761904Y-95452380D02*
X97761904Y-94452380D01*
X98000000Y-94452380D01*
X98142857Y-94500000D01*
X98238095Y-94595238D01*
X98285714Y-94690476D01*
X98333333Y-94880952D01*
X98333333Y-95023809D01*
X98285714Y-95214285D01*
X98238095Y-95309523D01*
X98142857Y-95404761D01*
X98000000Y-95452380D01*
X97761904Y-95452380D01*
X123404761Y-91452380D02*
X122833333Y-91452380D01*
X123119047Y-91452380D02*
X123119047Y-90452380D01*
X123023809Y-90595238D01*
X122928571Y-90690476D01*
X122833333Y-90738095D01*
X124023809Y-90452380D02*
X124119047Y-90452380D01*
X124214285Y-90500000D01*
X124261904Y-90547619D01*
X124309523Y-90642857D01*
X124357142Y-90833333D01*
X124357142Y-91071428D01*
X124309523Y-91261904D01*
X124261904Y-91357142D01*
X124214285Y-91404761D01*
X124119047Y-91452380D01*
X124023809Y-91452380D01*
X123928571Y-91404761D01*
X123880952Y-91357142D01*
X123833333Y-91261904D01*
X123785714Y-91071428D01*
X123785714Y-90833333D01*
X123833333Y-90642857D01*
X123880952Y-90547619D01*
X123928571Y-90500000D01*
X124023809Y-90452380D01*
X124785714Y-91452380D02*
X124785714Y-90452380D01*
X124880952Y-91071428D02*
X125166666Y-91452380D01*
X125166666Y-90785714D02*
X124785714Y-91166666D01*
X101857142Y-70452380D02*
X101285714Y-70452380D01*
X101571428Y-70452380D02*
X101571428Y-69452380D01*
X101476190Y-69595238D01*
X101380952Y-69690476D01*
X101285714Y-69738095D01*
X102285714Y-70452380D02*
X102285714Y-69452380D01*
X102857142Y-70452380D01*
X102857142Y-69452380D01*
X103809523Y-69452380D02*
X103333333Y-69452380D01*
X103285714Y-69928571D01*
X103333333Y-69880952D01*
X103428571Y-69833333D01*
X103666666Y-69833333D01*
X103761904Y-69880952D01*
X103809523Y-69928571D01*
X103857142Y-70023809D01*
X103857142Y-70261904D01*
X103809523Y-70357142D01*
X103761904Y-70404761D01*
X103666666Y-70452380D01*
X103428571Y-70452380D01*
X103333333Y-70404761D01*
X103285714Y-70357142D01*
X104428571Y-69880952D02*
X104333333Y-69833333D01*
X104285714Y-69785714D01*
X104238095Y-69690476D01*
X104238095Y-69642857D01*
X104285714Y-69547619D01*
X104333333Y-69500000D01*
X104428571Y-69452380D01*
X104619047Y-69452380D01*
X104714285Y-69500000D01*
X104761904Y-69547619D01*
X104809523Y-69642857D01*
X104809523Y-69690476D01*
X104761904Y-69785714D01*
X104714285Y-69833333D01*
X104619047Y-69880952D01*
X104428571Y-69880952D01*
X104333333Y-69928571D01*
X104285714Y-69976190D01*
X104238095Y-70071428D01*
X104238095Y-70261904D01*
X104285714Y-70357142D01*
X104333333Y-70404761D01*
X104428571Y-70452380D01*
X104619047Y-70452380D01*
X104714285Y-70404761D01*
X104761904Y-70357142D01*
X104809523Y-70261904D01*
X104809523Y-70071428D01*
X104761904Y-69976190D01*
X104714285Y-69928571D01*
X104619047Y-69880952D01*
X105190476Y-69547619D02*
X105238095Y-69500000D01*
X105333333Y-69452380D01*
X105571428Y-69452380D01*
X105666666Y-69500000D01*
X105714285Y-69547619D01*
X105761904Y-69642857D01*
X105761904Y-69738095D01*
X105714285Y-69880952D01*
X105142857Y-70452380D01*
X105761904Y-70452380D01*
X106142857Y-69547619D02*
X106190476Y-69500000D01*
X106285714Y-69452380D01*
X106523809Y-69452380D01*
X106619047Y-69500000D01*
X106666666Y-69547619D01*
X106714285Y-69642857D01*
X106714285Y-69738095D01*
X106666666Y-69880952D01*
X106095238Y-70452380D01*
X106714285Y-70452380D01*
X120357142Y-71785714D02*
X120357142Y-72452380D01*
X120119047Y-71404761D02*
X119880952Y-72119047D01*
X120500000Y-72119047D01*
X120785714Y-71452380D02*
X121452380Y-71452380D01*
X121023809Y-72452380D01*
X122023809Y-71452380D02*
X122119047Y-71452380D01*
X122214285Y-71500000D01*
X122261904Y-71547619D01*
X122309523Y-71642857D01*
X122357142Y-71833333D01*
X122357142Y-72071428D01*
X122309523Y-72261904D01*
X122261904Y-72357142D01*
X122214285Y-72404761D01*
X122119047Y-72452380D01*
X122023809Y-72452380D01*
X121928571Y-72404761D01*
X121880952Y-72357142D01*
X121833333Y-72261904D01*
X121785714Y-72071428D01*
X121785714Y-71833333D01*
X121833333Y-71642857D01*
X121880952Y-71547619D01*
X121928571Y-71500000D01*
X122023809Y-71452380D01*
X123214285Y-71785714D02*
X123214285Y-72452380D01*
X122785714Y-71785714D02*
X122785714Y-72309523D01*
X122833333Y-72404761D01*
X122928571Y-72452380D01*
X123071428Y-72452380D01*
X123166666Y-72404761D01*
X123214285Y-72357142D01*
X124023809Y-71928571D02*
X123690476Y-71928571D01*
X123690476Y-72452380D02*
X123690476Y-71452380D01*
X124166666Y-71452380D01*
X136309523Y-82785714D02*
X136309523Y-83452380D01*
X136071428Y-82404761D02*
X135833333Y-83119047D01*
X136452380Y-83119047D01*
X136738095Y-82452380D02*
X137404761Y-82452380D01*
X136976190Y-83452380D01*
X137785714Y-83452380D02*
X137785714Y-82452380D01*
X137880952Y-83071428D02*
X138166666Y-83452380D01*
X138166666Y-82785714D02*
X137785714Y-83166666D01*
X104452380Y-88595238D02*
X104452380Y-89166666D01*
X104452380Y-88880952D02*
X103452380Y-88880952D01*
X103595238Y-88976190D01*
X103690476Y-89071428D01*
X103738095Y-89166666D01*
X103452380Y-87976190D02*
X103452380Y-87880952D01*
X103500000Y-87785714D01*
X103547619Y-87738095D01*
X103642857Y-87690476D01*
X103833333Y-87642857D01*
X104071428Y-87642857D01*
X104261904Y-87690476D01*
X104357142Y-87738095D01*
X104404761Y-87785714D01*
X104452380Y-87880952D01*
X104452380Y-87976190D01*
X104404761Y-88071428D01*
X104357142Y-88119047D01*
X104261904Y-88166666D01*
X104071428Y-88214285D01*
X103833333Y-88214285D01*
X103642857Y-88166666D01*
X103547619Y-88119047D01*
X103500000Y-88071428D01*
X103452380Y-87976190D01*
X104452380Y-87214285D02*
X103452380Y-87214285D01*
X104071428Y-87119047D02*
X104452380Y-86833333D01*
X103785714Y-86833333D02*
X104166666Y-87214285D01*
X110285714Y-81547619D02*
X110333333Y-81500000D01*
X110428571Y-81452380D01*
X110666666Y-81452380D01*
X110761904Y-81500000D01*
X110809523Y-81547619D01*
X110857142Y-81642857D01*
X110857142Y-81738095D01*
X110809523Y-81880952D01*
X110238095Y-82452380D01*
X110857142Y-82452380D01*
X111285714Y-82452380D02*
X111285714Y-81452380D01*
X111857142Y-82452380D01*
X111857142Y-81452380D01*
X112238095Y-81452380D02*
X112857142Y-81452380D01*
X112523809Y-81833333D01*
X112666666Y-81833333D01*
X112761904Y-81880952D01*
X112809523Y-81928571D01*
X112857142Y-82023809D01*
X112857142Y-82261904D01*
X112809523Y-82357142D01*
X112761904Y-82404761D01*
X112666666Y-82452380D01*
X112380952Y-82452380D01*
X112285714Y-82404761D01*
X112238095Y-82357142D01*
X113333333Y-82452380D02*
X113523809Y-82452380D01*
X113619047Y-82404761D01*
X113666666Y-82357142D01*
X113761904Y-82214285D01*
X113809523Y-82023809D01*
X113809523Y-81642857D01*
X113761904Y-81547619D01*
X113714285Y-81500000D01*
X113619047Y-81452380D01*
X113428571Y-81452380D01*
X113333333Y-81500000D01*
X113285714Y-81547619D01*
X113238095Y-81642857D01*
X113238095Y-81880952D01*
X113285714Y-81976190D01*
X113333333Y-82023809D01*
X113428571Y-82071428D01*
X113619047Y-82071428D01*
X113714285Y-82023809D01*
X113761904Y-81976190D01*
X113809523Y-81880952D01*
X114428571Y-81452380D02*
X114523809Y-81452380D01*
X114619047Y-81500000D01*
X114666666Y-81547619D01*
X114714285Y-81642857D01*
X114761904Y-81833333D01*
X114761904Y-82071428D01*
X114714285Y-82261904D01*
X114666666Y-82357142D01*
X114619047Y-82404761D01*
X114523809Y-82452380D01*
X114428571Y-82452380D01*
X114333333Y-82404761D01*
X114285714Y-82357142D01*
X114238095Y-82261904D01*
X114190476Y-82071428D01*
X114190476Y-81833333D01*
X114238095Y-81642857D01*
X114285714Y-81547619D01*
X114333333Y-81500000D01*
X114428571Y-81452380D01*
X115619047Y-81785714D02*
X115619047Y-82452380D01*
X115380952Y-81404761D02*
X115142857Y-82119047D01*
X115761904Y-82119047D01*
X141833333Y-76452380D02*
X141357142Y-76452380D01*
X141357142Y-75452380D01*
X142166666Y-76452380D02*
X142166666Y-75452380D01*
X142500000Y-76166666D01*
X142833333Y-75452380D01*
X142833333Y-76452380D01*
X143261904Y-75547619D02*
X143309523Y-75500000D01*
X143404761Y-75452380D01*
X143642857Y-75452380D01*
X143738095Y-75500000D01*
X143785714Y-75547619D01*
X143833333Y-75642857D01*
X143833333Y-75738095D01*
X143785714Y-75880952D01*
X143214285Y-76452380D01*
X143833333Y-76452380D01*
X144738095Y-75452380D02*
X144261904Y-75452380D01*
X144214285Y-75928571D01*
X144261904Y-75880952D01*
X144357142Y-75833333D01*
X144595238Y-75833333D01*
X144690476Y-75880952D01*
X144738095Y-75928571D01*
X144785714Y-76023809D01*
X144785714Y-76261904D01*
X144738095Y-76357142D01*
X144690476Y-76404761D01*
X144595238Y-76452380D01*
X144357142Y-76452380D01*
X144261904Y-76404761D01*
X144214285Y-76357142D01*
X145261904Y-76452380D02*
X145452380Y-76452380D01*
X145547619Y-76404761D01*
X145595238Y-76357142D01*
X145690476Y-76214285D01*
X145738095Y-76023809D01*
X145738095Y-75642857D01*
X145690476Y-75547619D01*
X145642857Y-75500000D01*
X145547619Y-75452380D01*
X145357142Y-75452380D01*
X145261904Y-75500000D01*
X145214285Y-75547619D01*
X145166666Y-75642857D01*
X145166666Y-75880952D01*
X145214285Y-75976190D01*
X145261904Y-76023809D01*
X145357142Y-76071428D01*
X145547619Y-76071428D01*
X145642857Y-76023809D01*
X145690476Y-75976190D01*
X145738095Y-75880952D01*
X146595238Y-75452380D02*
X146404761Y-75452380D01*
X146309523Y-75500000D01*
X146261904Y-75547619D01*
X146166666Y-75690476D01*
X146119047Y-75880952D01*
X146119047Y-76261904D01*
X146166666Y-76357142D01*
X146214285Y-76404761D01*
X146309523Y-76452380D01*
X146500000Y-76452380D01*
X146595238Y-76404761D01*
X146642857Y-76357142D01*
X146690476Y-76261904D01*
X146690476Y-76023809D01*
X146642857Y-75928571D01*
X146595238Y-75880952D01*
X146500000Y-75833333D01*
X146309523Y-75833333D01*
X146214285Y-75880952D01*
X146166666Y-75928571D01*
X146119047Y-76023809D01*
X109023809Y-100452380D02*
X108452380Y-100452380D01*
X108738095Y-100452380D02*
X108738095Y-99452380D01*
X108642857Y-99595238D01*
X108547619Y-99690476D01*
X108452380Y-99738095D01*
X109404761Y-99547619D02*
X109452380Y-99500000D01*
X109547619Y-99452380D01*
X109785714Y-99452380D01*
X109880952Y-99500000D01*
X109928571Y-99547619D01*
X109976190Y-99642857D01*
X109976190Y-99738095D01*
X109928571Y-99880952D01*
X109357142Y-100452380D01*
X109976190Y-100452380D01*
X110309523Y-99785714D02*
X110547619Y-100452380D01*
X110785714Y-99785714D01*
X111833333Y-99785714D02*
X112357142Y-99785714D01*
X111833333Y-100452380D01*
X112357142Y-100452380D01*
X113119047Y-100404761D02*
X113023809Y-100452380D01*
X112833333Y-100452380D01*
X112738095Y-100404761D01*
X112690476Y-100309523D01*
X112690476Y-99928571D01*
X112738095Y-99833333D01*
X112833333Y-99785714D01*
X113023809Y-99785714D01*
X113119047Y-99833333D01*
X113166666Y-99928571D01*
X113166666Y-100023809D01*
X112690476Y-100119047D01*
X113595238Y-99785714D02*
X113595238Y-100452380D01*
X113595238Y-99880952D02*
X113642857Y-99833333D01*
X113738095Y-99785714D01*
X113880952Y-99785714D01*
X113976190Y-99833333D01*
X114023809Y-99928571D01*
X114023809Y-100452380D01*
X114880952Y-100404761D02*
X114785714Y-100452380D01*
X114595238Y-100452380D01*
X114500000Y-100404761D01*
X114452380Y-100309523D01*
X114452380Y-99928571D01*
X114500000Y-99833333D01*
X114595238Y-99785714D01*
X114785714Y-99785714D01*
X114880952Y-99833333D01*
X114928571Y-99928571D01*
X114928571Y-100023809D01*
X114452380Y-100119047D01*
X115357142Y-100452380D02*
X115357142Y-99785714D01*
X115357142Y-99976190D02*
X115404761Y-99880952D01*
X115452380Y-99833333D01*
X115547619Y-99785714D01*
X115642857Y-99785714D01*
%TO.C,U1*%
X135238095Y-68782380D02*
X135238095Y-69591904D01*
X135285714Y-69687142D01*
X135333333Y-69734761D01*
X135428571Y-69782380D01*
X135619047Y-69782380D01*
X135714285Y-69734761D01*
X135761904Y-69687142D01*
X135809523Y-69591904D01*
X135809523Y-68782380D01*
X136809523Y-69782380D02*
X136238095Y-69782380D01*
X136523809Y-69782380D02*
X136523809Y-68782380D01*
X136428571Y-68925238D01*
X136333333Y-69020476D01*
X136238095Y-69068095D01*
%TO.C,J2*%
X140512380Y-95328333D02*
X141226666Y-95328333D01*
X141369523Y-95375952D01*
X141464761Y-95471190D01*
X141512380Y-95614047D01*
X141512380Y-95709285D01*
X140607619Y-94899761D02*
X140560000Y-94852142D01*
X140512380Y-94756904D01*
X140512380Y-94518809D01*
X140560000Y-94423571D01*
X140607619Y-94375952D01*
X140702857Y-94328333D01*
X140798095Y-94328333D01*
X140940952Y-94375952D01*
X141512380Y-94947380D01*
X141512380Y-94328333D01*
%TO.C,Q1*%
X117107619Y-87095238D02*
X117060000Y-87190476D01*
X116964761Y-87285714D01*
X116821904Y-87428571D01*
X116774285Y-87523809D01*
X116774285Y-87619047D01*
X117012380Y-87571428D02*
X116964761Y-87666666D01*
X116869523Y-87761904D01*
X116679047Y-87809523D01*
X116345714Y-87809523D01*
X116155238Y-87761904D01*
X116060000Y-87666666D01*
X116012380Y-87571428D01*
X116012380Y-87380952D01*
X116060000Y-87285714D01*
X116155238Y-87190476D01*
X116345714Y-87142857D01*
X116679047Y-87142857D01*
X116869523Y-87190476D01*
X116964761Y-87285714D01*
X117012380Y-87380952D01*
X117012380Y-87571428D01*
X117012380Y-86190476D02*
X117012380Y-86761904D01*
X117012380Y-86476190D02*
X116012380Y-86476190D01*
X116155238Y-86571428D01*
X116250476Y-86666666D01*
X116298095Y-86761904D01*
%TO.C,R3*%
X133833333Y-83532380D02*
X133500000Y-83056190D01*
X133261904Y-83532380D02*
X133261904Y-82532380D01*
X133642857Y-82532380D01*
X133738095Y-82580000D01*
X133785714Y-82627619D01*
X133833333Y-82722857D01*
X133833333Y-82865714D01*
X133785714Y-82960952D01*
X133738095Y-83008571D01*
X133642857Y-83056190D01*
X133261904Y-83056190D01*
X134166666Y-82532380D02*
X134785714Y-82532380D01*
X134452380Y-82913333D01*
X134595238Y-82913333D01*
X134690476Y-82960952D01*
X134738095Y-83008571D01*
X134785714Y-83103809D01*
X134785714Y-83341904D01*
X134738095Y-83437142D01*
X134690476Y-83484761D01*
X134595238Y-83532380D01*
X134309523Y-83532380D01*
X134214285Y-83484761D01*
X134166666Y-83437142D01*
%TO.C,C1*%
X128607142Y-79298989D02*
X128654761Y-79346608D01*
X128702380Y-79489465D01*
X128702380Y-79584703D01*
X128654761Y-79727561D01*
X128559523Y-79822799D01*
X128464285Y-79870418D01*
X128273809Y-79918037D01*
X128130952Y-79918037D01*
X127940476Y-79870418D01*
X127845238Y-79822799D01*
X127750000Y-79727561D01*
X127702380Y-79584703D01*
X127702380Y-79489465D01*
X127750000Y-79346608D01*
X127797619Y-79298989D01*
X128702380Y-78346608D02*
X128702380Y-78918037D01*
X128702380Y-78632323D02*
X127702380Y-78632323D01*
X127845238Y-78727561D01*
X127940476Y-78822799D01*
X127988095Y-78918037D01*
%TO.C,J1*%
X101512380Y-88328333D02*
X102226666Y-88328333D01*
X102369523Y-88375952D01*
X102464761Y-88471190D01*
X102512380Y-88614047D01*
X102512380Y-88709285D01*
X102512380Y-87328333D02*
X102512380Y-87899761D01*
X102512380Y-87614047D02*
X101512380Y-87614047D01*
X101655238Y-87709285D01*
X101750476Y-87804523D01*
X101798095Y-87899761D01*
%TO.C,D1*%
X104261904Y-78172380D02*
X104261904Y-77172380D01*
X104500000Y-77172380D01*
X104642857Y-77220000D01*
X104738095Y-77315238D01*
X104785714Y-77410476D01*
X104833333Y-77600952D01*
X104833333Y-77743809D01*
X104785714Y-77934285D01*
X104738095Y-78029523D01*
X104642857Y-78124761D01*
X104500000Y-78172380D01*
X104261904Y-78172380D01*
X105785714Y-78172380D02*
X105214285Y-78172380D01*
X105500000Y-78172380D02*
X105500000Y-77172380D01*
X105404761Y-77315238D01*
X105309523Y-77410476D01*
X105214285Y-77458095D01*
X112358095Y-77052380D02*
X112358095Y-76052380D01*
X112929523Y-77052380D02*
X112500952Y-76480952D01*
X112929523Y-76052380D02*
X112358095Y-76623809D01*
%TO.C,R2*%
X123833333Y-95372380D02*
X123500000Y-94896190D01*
X123261904Y-95372380D02*
X123261904Y-94372380D01*
X123642857Y-94372380D01*
X123738095Y-94420000D01*
X123785714Y-94467619D01*
X123833333Y-94562857D01*
X123833333Y-94705714D01*
X123785714Y-94800952D01*
X123738095Y-94848571D01*
X123642857Y-94896190D01*
X123261904Y-94896190D01*
X124214285Y-94467619D02*
X124261904Y-94420000D01*
X124357142Y-94372380D01*
X124595238Y-94372380D01*
X124690476Y-94420000D01*
X124738095Y-94467619D01*
X124785714Y-94562857D01*
X124785714Y-94658095D01*
X124738095Y-94800952D01*
X124166666Y-95372380D01*
X124785714Y-95372380D01*
%TO.C,R1*%
X108372380Y-88166666D02*
X107896190Y-88500000D01*
X108372380Y-88738095D02*
X107372380Y-88738095D01*
X107372380Y-88357142D01*
X107420000Y-88261904D01*
X107467619Y-88214285D01*
X107562857Y-88166666D01*
X107705714Y-88166666D01*
X107800952Y-88214285D01*
X107848571Y-88261904D01*
X107896190Y-88357142D01*
X107896190Y-88738095D01*
X108372380Y-87214285D02*
X108372380Y-87785714D01*
X108372380Y-87500000D02*
X107372380Y-87500000D01*
X107515238Y-87595238D01*
X107610476Y-87690476D01*
X107658095Y-87785714D01*
%TO.C,D2*%
X111261904Y-94982380D02*
X111261904Y-93982380D01*
X111500000Y-93982380D01*
X111642857Y-94030000D01*
X111738095Y-94125238D01*
X111785714Y-94220476D01*
X111833333Y-94410952D01*
X111833333Y-94553809D01*
X111785714Y-94744285D01*
X111738095Y-94839523D01*
X111642857Y-94934761D01*
X111500000Y-94982380D01*
X111261904Y-94982380D01*
X112214285Y-94077619D02*
X112261904Y-94030000D01*
X112357142Y-93982380D01*
X112595238Y-93982380D01*
X112690476Y-94030000D01*
X112738095Y-94077619D01*
X112785714Y-94172857D01*
X112785714Y-94268095D01*
X112738095Y-94410952D01*
X112166666Y-94982380D01*
X112785714Y-94982380D01*
X106658095Y-95352380D02*
X106658095Y-94352380D01*
X107229523Y-95352380D02*
X106800952Y-94780952D01*
X107229523Y-94352380D02*
X106658095Y-94923809D01*
D11*
%TO.C,U1*%
X137850000Y-70330000D02*
X137850000Y-71839000D01*
X130879000Y-71839000D02*
X141120000Y-71839000D01*
X135365000Y-74971000D02*
X136635000Y-74971000D01*
X141120000Y-70330000D02*
X141120000Y-74971000D01*
X139400000Y-74971000D02*
X139400000Y-77585000D01*
X132600000Y-74971000D02*
X132600000Y-77601000D01*
X130879000Y-70330000D02*
X130879000Y-74971000D01*
X138765000Y-74971000D02*
X141120000Y-74971000D01*
X130879000Y-74971000D02*
X133235000Y-74971000D01*
X130879000Y-70330000D02*
X141120000Y-70330000D01*
X134150000Y-70330000D02*
X134150000Y-71839000D01*
X136000000Y-74971000D02*
X136000000Y-77585000D01*
%TO.C,J2*%
X134000000Y-89855000D02*
X134000000Y-100135000D01*
X131940000Y-89855000D02*
X131940000Y-100135000D01*
X140060000Y-100135000D02*
X131940000Y-100135000D01*
X134784000Y-96525000D02*
X134726000Y-96466000D01*
X137275000Y-98605000D02*
X137216000Y-98546000D01*
X138000000Y-89855000D02*
X138000000Y-100135000D01*
X135024000Y-96355000D02*
X134931000Y-96261000D01*
X131700000Y-89615000D02*
X131700000Y-91615000D01*
X140060000Y-89855000D02*
X140060000Y-100135000D01*
X133940000Y-89615000D02*
X131700000Y-89615000D01*
X137069000Y-98810000D02*
X136976000Y-98716000D01*
X140060000Y-89855000D02*
X131940000Y-89855000D01*
X134516000Y-91666000D02*
G75*
G03*
X134319550Y-92484383I1483995J-788998D01*
G01*
X135211000Y-93939000D02*
G75*
G03*
X136789089Y-93938953I789000J1483995D01*
G01*
X137484000Y-93244000D02*
G75*
G03*
X137483953Y-91665911I-1483995J789000D01*
G01*
X134320000Y-92455000D02*
G75*
G03*
X134516648Y-93243712I1679991J-2D01*
G01*
X136789000Y-90971000D02*
G75*
G03*
X135210911Y-90971047I-789000J-1483995D01*
G01*
X137680000Y-97535000D02*
G75*
G03*
X137680000Y-97535000I-1680000J0D01*
G01*
%TO.C,Q1*%
X111150000Y-85200000D02*
X111150000Y-88800000D01*
X111161522Y-88838478D02*
G75*
G03*
X115600000Y-87000000I1838478J1838478D01*
G01*
X115600001Y-87000000D02*
G75*
G03*
X111161522Y-85161522I-2600001J0D01*
G01*
%TO.C,R3*%
X134080000Y-84080000D02*
X134080000Y-85920000D01*
X134080000Y-85920000D02*
X137920000Y-85920000D01*
X137920000Y-84080000D02*
X134080000Y-84080000D01*
X138870000Y-85000000D02*
X137920000Y-85000000D01*
X133130000Y-85000000D02*
X134080000Y-85000000D01*
X137920000Y-85920000D02*
X137920000Y-84080000D01*
%TO.C,C1*%
X120759000Y-82373323D02*
X118075000Y-82373323D01*
X127073000Y-79412323D02*
X116927000Y-79412323D01*
X120759000Y-81373323D02*
X117436000Y-81373323D01*
X126768000Y-80893323D02*
X123241000Y-80893323D01*
X124037000Y-83813323D02*
X119963000Y-83813323D01*
X120759000Y-81293323D02*
X117397000Y-81293323D01*
X125156000Y-83133323D02*
X118844000Y-83133323D01*
X125640000Y-82693323D02*
X123241000Y-82693323D01*
X127004000Y-80013323D02*
X116996000Y-80013323D01*
X120759000Y-81853323D02*
X117702000Y-81853323D01*
X123846000Y-83893323D02*
X120154000Y-83893323D01*
X125561000Y-82773323D02*
X123241000Y-82773323D01*
X127050000Y-79692323D02*
X116950000Y-79692323D01*
X120759000Y-80773323D02*
X117189000Y-80773323D01*
X124945000Y-83293323D02*
X119055000Y-83293323D01*
X125000000Y-83253323D02*
X119000000Y-83253323D01*
X127079000Y-79252323D02*
X116921000Y-79252323D01*
X120759000Y-81453323D02*
X117475000Y-81453323D01*
X120759000Y-81573323D02*
X117538000Y-81573323D01*
X120759000Y-80813323D02*
X117203000Y-80813323D01*
X127058000Y-79612323D02*
X116942000Y-79612323D01*
X124125000Y-83773323D02*
X119875000Y-83773323D01*
X120759000Y-80653323D02*
X117150000Y-80653323D01*
X120759000Y-82733323D02*
X118399000Y-82733323D01*
X122862000Y-84173323D02*
X121138000Y-84173323D01*
X120759000Y-82773323D02*
X118439000Y-82773323D01*
X120759000Y-81093323D02*
X117310000Y-81093323D01*
X126323000Y-81813323D02*
X123241000Y-81813323D01*
X120759000Y-82533323D02*
X118211000Y-82533323D01*
X120759000Y-82133323D02*
X117890000Y-82133323D01*
X125824000Y-82493323D02*
X123241000Y-82493323D01*
X123510000Y-84013323D02*
X120490000Y-84013323D01*
X125206000Y-83093323D02*
X118794000Y-83093323D01*
X124645000Y-83493323D02*
X119355000Y-83493323D01*
X124579000Y-83533323D02*
X119421000Y-83533323D01*
X120759000Y-81133323D02*
X117326000Y-81133323D01*
X126138000Y-82093323D02*
X123241000Y-82093323D01*
X125989000Y-82293323D02*
X123241000Y-82293323D01*
X124510000Y-83573323D02*
X119490000Y-83573323D01*
X125301000Y-83013323D02*
X118699000Y-83013323D01*
X120759000Y-80493323D02*
X117103000Y-80493323D01*
X125957000Y-82333323D02*
X123241000Y-82333323D01*
X120759000Y-80853323D02*
X117217000Y-80853323D01*
X120759000Y-80693323D02*
X117163000Y-80693323D01*
X126221000Y-81973323D02*
X123241000Y-81973323D01*
X125753000Y-82573323D02*
X123241000Y-82573323D01*
X125054000Y-83213323D02*
X118946000Y-83213323D01*
X120759000Y-80893323D02*
X117232000Y-80893323D01*
X126194000Y-82013323D02*
X123241000Y-82013323D01*
X120759000Y-80613323D02*
X117138000Y-80613323D01*
X126462000Y-81573323D02*
X123241000Y-81573323D01*
X126947000Y-80293323D02*
X117053000Y-80293323D01*
X127078000Y-79292323D02*
X116922000Y-79292323D01*
X120759000Y-81053323D02*
X117293000Y-81053323D01*
X126674000Y-81133323D02*
X123241000Y-81133323D01*
X124709000Y-83453323D02*
X119291000Y-83453323D01*
X123630000Y-83973323D02*
X120370000Y-83973323D01*
X120759000Y-82693323D02*
X118360000Y-82693323D01*
X126110000Y-82133323D02*
X123241000Y-82133323D01*
X126997000Y-80053323D02*
X117003000Y-80053323D01*
X124439000Y-83613323D02*
X119561000Y-83613323D01*
X120759000Y-80973323D02*
X117262000Y-80973323D01*
X120759000Y-81893323D02*
X117727000Y-81893323D01*
X120759000Y-81733323D02*
X117629000Y-81733323D01*
X126050000Y-82213323D02*
X123241000Y-82213323D01*
X126298000Y-81853323D02*
X123241000Y-81853323D01*
X120759000Y-81173323D02*
X117343000Y-81173323D01*
X120759000Y-82013323D02*
X117806000Y-82013323D01*
X120759000Y-82613323D02*
X118284000Y-82613323D01*
X126657000Y-81173323D02*
X123241000Y-81173323D01*
X123742000Y-83933323D02*
X120258000Y-83933323D01*
X126483000Y-81533323D02*
X123241000Y-81533323D01*
X120759000Y-80413323D02*
X117082000Y-80413323D01*
X126783000Y-80853323D02*
X123241000Y-80853323D01*
X120759000Y-81973323D02*
X117779000Y-81973323D01*
X125892000Y-82413323D02*
X123241000Y-82413323D01*
X120759000Y-81813323D02*
X117677000Y-81813323D01*
X127018000Y-79933323D02*
X116982000Y-79933323D01*
X120759000Y-81493323D02*
X117496000Y-81493323D01*
X125679000Y-82653323D02*
X123241000Y-82653323D01*
X127080000Y-79172323D02*
X116920000Y-79172323D01*
X120759000Y-82213323D02*
X117950000Y-82213323D01*
X120759000Y-81013323D02*
X117277000Y-81013323D01*
X127035000Y-79812323D02*
X116965000Y-79812323D01*
X120759000Y-81933323D02*
X117753000Y-81933323D01*
X125106000Y-83173323D02*
X118894000Y-83173323D01*
X126824000Y-80733323D02*
X123241000Y-80733323D01*
X120759000Y-82293323D02*
X118011000Y-82293323D01*
X126166000Y-82053323D02*
X123241000Y-82053323D01*
X120759000Y-81613323D02*
X117560000Y-81613323D01*
X125716000Y-82613323D02*
X123241000Y-82613323D01*
X126850000Y-80653323D02*
X123241000Y-80653323D01*
X126417000Y-81653323D02*
X123241000Y-81653323D01*
X127062000Y-79572323D02*
X116938000Y-79572323D01*
X124875000Y-73652677D02*
X124875000Y-74652677D01*
X126797000Y-80813323D02*
X123241000Y-80813323D01*
X126965000Y-80213323D02*
X117035000Y-80213323D01*
X124889000Y-83333323D02*
X119111000Y-83333323D01*
X127054000Y-79652323D02*
X116946000Y-79652323D01*
X120759000Y-82853323D02*
X118522000Y-82853323D01*
X125601000Y-82733323D02*
X123241000Y-82733323D01*
X126874000Y-80573323D02*
X123241000Y-80573323D01*
X126918000Y-80413323D02*
X123241000Y-80413323D01*
X127045000Y-79732323D02*
X116955000Y-79732323D01*
X126525000Y-81453323D02*
X123241000Y-81453323D01*
X120759000Y-82333323D02*
X118043000Y-82333323D01*
X124770000Y-83413323D02*
X119230000Y-83413323D01*
X126938000Y-80333323D02*
X117062000Y-80333323D01*
X120759000Y-81773323D02*
X117653000Y-81773323D01*
X126811000Y-80773323D02*
X123241000Y-80773323D01*
X126990000Y-80093323D02*
X117010000Y-80093323D01*
X126545000Y-81413323D02*
X123241000Y-81413323D01*
X120759000Y-80733323D02*
X117176000Y-80733323D01*
X122599000Y-84213323D02*
X121401000Y-84213323D01*
X126273000Y-81893323D02*
X123241000Y-81893323D01*
X126862000Y-80613323D02*
X123241000Y-80613323D01*
X126440000Y-81613323D02*
X123241000Y-81613323D01*
X127065000Y-79532323D02*
X116935000Y-79532323D01*
X127030000Y-79853323D02*
X116970000Y-79853323D01*
X120759000Y-81653323D02*
X117583000Y-81653323D01*
X125436000Y-82893323D02*
X118564000Y-82893323D01*
X126982000Y-80133323D02*
X117018000Y-80133323D01*
X125478000Y-82853323D02*
X123241000Y-82853323D01*
X126690000Y-81093323D02*
X123241000Y-81093323D01*
X126504000Y-81493323D02*
X123241000Y-81493323D01*
X126928000Y-80373323D02*
X117072000Y-80373323D01*
X127075000Y-79372323D02*
X116925000Y-79372323D01*
X120759000Y-82493323D02*
X118176000Y-82493323D01*
X120759000Y-80533323D02*
X117115000Y-80533323D01*
X127070000Y-79452323D02*
X116930000Y-79452323D01*
X127011000Y-79973323D02*
X116989000Y-79973323D01*
X125254000Y-83053323D02*
X118746000Y-83053323D01*
X125375000Y-74152677D02*
X124375000Y-74152677D01*
X127024000Y-79893323D02*
X116976000Y-79893323D01*
X120759000Y-82813323D02*
X118480000Y-82813323D01*
X120759000Y-82253323D02*
X117980000Y-82253323D01*
X126395000Y-81693323D02*
X123241000Y-81693323D01*
X127068000Y-79492323D02*
X116932000Y-79492323D01*
X124365000Y-83653323D02*
X119635000Y-83653323D01*
X124830000Y-83373323D02*
X119170000Y-83373323D01*
X126080000Y-82173323D02*
X123241000Y-82173323D01*
X126584000Y-81333323D02*
X123241000Y-81333323D01*
X126564000Y-81373323D02*
X123241000Y-81373323D01*
X120759000Y-81213323D02*
X117361000Y-81213323D01*
X120759000Y-81693323D02*
X117605000Y-81693323D01*
X120759000Y-81413323D02*
X117455000Y-81413323D01*
X126974000Y-80173323D02*
X117026000Y-80173323D01*
X120759000Y-82413323D02*
X118108000Y-82413323D01*
X126371000Y-81733323D02*
X123241000Y-81733323D01*
X126837000Y-80693323D02*
X123241000Y-80693323D01*
X125858000Y-82453323D02*
X123241000Y-82453323D01*
X123230000Y-84093323D02*
X120770000Y-84093323D01*
X125520000Y-82813323D02*
X123241000Y-82813323D01*
X123944000Y-83853323D02*
X120056000Y-83853323D01*
X125789000Y-82533323D02*
X123241000Y-82533323D01*
X126621000Y-81253323D02*
X123241000Y-81253323D01*
X124209000Y-83733323D02*
X119791000Y-83733323D01*
X123062000Y-84133323D02*
X120938000Y-84133323D01*
X120759000Y-82653323D02*
X118321000Y-82653323D01*
X123378000Y-84053323D02*
X120622000Y-84053323D01*
X126723000Y-81013323D02*
X123241000Y-81013323D01*
X126956000Y-80253323D02*
X117044000Y-80253323D01*
X125392000Y-82933323D02*
X118608000Y-82933323D01*
X126020000Y-82253323D02*
X123241000Y-82253323D01*
X126907000Y-80453323D02*
X123241000Y-80453323D01*
X120759000Y-82453323D02*
X118142000Y-82453323D01*
X120759000Y-82093323D02*
X117862000Y-82093323D01*
X126897000Y-80493323D02*
X123241000Y-80493323D01*
X126707000Y-81053323D02*
X123241000Y-81053323D01*
X127080000Y-79132323D02*
X116920000Y-79132323D01*
X120759000Y-82053323D02*
X117834000Y-82053323D01*
X120759000Y-80933323D02*
X117246000Y-80933323D01*
X127080000Y-79212323D02*
X116920000Y-79212323D01*
X125347000Y-82973323D02*
X118653000Y-82973323D01*
X120759000Y-82173323D02*
X117920000Y-82173323D01*
X126754000Y-80933323D02*
X123241000Y-80933323D01*
X127040000Y-79772323D02*
X116960000Y-79772323D01*
X120759000Y-82573323D02*
X118247000Y-82573323D01*
X126347000Y-81773323D02*
X123241000Y-81773323D01*
X126603000Y-81293323D02*
X123241000Y-81293323D01*
X124289000Y-83693323D02*
X119711000Y-83693323D01*
X120759000Y-81253323D02*
X117379000Y-81253323D01*
X126639000Y-81213323D02*
X123241000Y-81213323D01*
X127077000Y-79332323D02*
X116923000Y-79332323D01*
X126247000Y-81933323D02*
X123241000Y-81933323D01*
X120759000Y-80573323D02*
X117126000Y-80573323D01*
X125925000Y-82373323D02*
X123241000Y-82373323D01*
X126738000Y-80973323D02*
X123241000Y-80973323D01*
X126885000Y-80533323D02*
X123241000Y-80533323D01*
X120759000Y-80453323D02*
X117093000Y-80453323D01*
X120759000Y-81533323D02*
X117517000Y-81533323D01*
X120759000Y-81333323D02*
X117416000Y-81333323D01*
X127120000Y-79132323D02*
G75*
G03*
X127120000Y-79132323I-5120000J0D01*
G01*
%TO.C,J1*%
X96024000Y-89355000D02*
X95931000Y-89261000D01*
X99000000Y-82855000D02*
X99000000Y-93135000D01*
X94940000Y-82615000D02*
X92700000Y-82615000D01*
X92700000Y-82615000D02*
X92700000Y-84615000D01*
X98069000Y-91810000D02*
X97976000Y-91716000D01*
X92940000Y-82855000D02*
X92940000Y-93135000D01*
X98275000Y-91605000D02*
X98216000Y-91546000D01*
X101060000Y-82855000D02*
X101060000Y-93135000D01*
X101060000Y-93135000D02*
X92940000Y-93135000D01*
X101060000Y-82855000D02*
X92940000Y-82855000D01*
X95784000Y-89525000D02*
X95726000Y-89466000D01*
X95000000Y-82855000D02*
X95000000Y-93135000D01*
X98484000Y-86244000D02*
G75*
G03*
X98483953Y-84665911I-1483995J789000D01*
G01*
X96211000Y-86939000D02*
G75*
G03*
X97789089Y-86938953I789000J1483995D01*
G01*
X97789000Y-83971000D02*
G75*
G03*
X96210911Y-83971047I-789000J-1483995D01*
G01*
X95516000Y-84666000D02*
G75*
G03*
X95319550Y-85484383I1483995J-788998D01*
G01*
X95320000Y-85455000D02*
G75*
G03*
X95516648Y-86243712I1679991J-2D01*
G01*
X98680000Y-90535000D02*
G75*
G03*
X98680000Y-90535000I-1680000J0D01*
G01*
%TO.C,D1*%
X108325000Y-76720000D02*
X108325000Y-71280000D01*
X108445000Y-76720000D02*
X108445000Y-71280000D01*
X108205000Y-76720000D02*
X108205000Y-71280000D01*
X110780000Y-74000000D02*
X109870000Y-74000000D01*
X109870000Y-76720000D02*
X109870000Y-71280000D01*
X100130000Y-76720000D02*
X109870000Y-76720000D01*
X100130000Y-71280000D02*
X100130000Y-76720000D01*
X109870000Y-71280000D02*
X100130000Y-71280000D01*
X99220000Y-74000000D02*
X100130000Y-74000000D01*
%TO.C,R2*%
X125920000Y-92080000D02*
X122080000Y-92080000D01*
X121130000Y-93000000D02*
X122080000Y-93000000D01*
X122080000Y-92080000D02*
X122080000Y-93920000D01*
X125920000Y-93920000D02*
X125920000Y-92080000D01*
X122080000Y-93920000D02*
X125920000Y-93920000D01*
X126870000Y-93000000D02*
X125920000Y-93000000D01*
%TO.C,R1*%
X106920000Y-89920000D02*
X106920000Y-86080000D01*
X105080000Y-89920000D02*
X106920000Y-89920000D01*
X105080000Y-86080000D02*
X105080000Y-89920000D01*
X106000000Y-85130000D02*
X106000000Y-86080000D01*
X106920000Y-86080000D02*
X105080000Y-86080000D01*
X106000000Y-90870000D02*
X106000000Y-89920000D01*
%TO.C,D2*%
X110180000Y-95530000D02*
X110180000Y-98470000D01*
X108260000Y-97000000D02*
X109280000Y-97000000D01*
X110060000Y-95530000D02*
X110060000Y-98470000D01*
X109280000Y-98470000D02*
X114720000Y-98470000D01*
X114720000Y-95530000D02*
X109280000Y-95530000D01*
X115740000Y-97000000D02*
X114720000Y-97000000D01*
X114720000Y-98470000D02*
X114720000Y-95530000D01*
X110300000Y-95530000D02*
X110300000Y-98470000D01*
X109280000Y-95530000D02*
X109280000Y-98470000D01*
%TD*%
M02*
