%TF.GenerationSoftware,KiCad,Pcbnew,(6.0.2)*%
%TF.CreationDate,2022-08-07T03:32:02+03:00*%
%TF.ProjectId,LM2596_invertingBuck_5,4c4d3235-3936-45f6-996e-76657274696e,rev?*%
%TF.SameCoordinates,Original*%
%TF.FileFunction,Legend,Bot*%
%TF.FilePolarity,Positive*%
%FSLAX46Y46*%
G04 Gerber Fmt 4.6, Leading zero omitted, Abs format (unit mm)*
G04 Created by KiCad (PCBNEW (6.0.2)) date 2022-08-07 03:32:02*
%MOMM*%
%LPD*%
G01*
G04 APERTURE LIST*
%ADD10C,0.150000*%
G04 APERTURE END LIST*
D10*
X143761904Y-71904761D02*
X144714285Y-71904761D01*
X144714285Y-69904761D01*
X143095238Y-71904761D02*
X143095238Y-69904761D01*
X142428571Y-71333333D01*
X141761904Y-69904761D01*
X141761904Y-71904761D01*
X140904761Y-70095238D02*
X140809523Y-70000000D01*
X140619047Y-69904761D01*
X140142857Y-69904761D01*
X139952380Y-70000000D01*
X139857142Y-70095238D01*
X139761904Y-70285714D01*
X139761904Y-70476190D01*
X139857142Y-70761904D01*
X141000000Y-71904761D01*
X139761904Y-71904761D01*
X137952380Y-69904761D02*
X138904761Y-69904761D01*
X139000000Y-70857142D01*
X138904761Y-70761904D01*
X138714285Y-70666666D01*
X138238095Y-70666666D01*
X138047619Y-70761904D01*
X137952380Y-70857142D01*
X137857142Y-71047619D01*
X137857142Y-71523809D01*
X137952380Y-71714285D01*
X138047619Y-71809523D01*
X138238095Y-71904761D01*
X138714285Y-71904761D01*
X138904761Y-71809523D01*
X139000000Y-71714285D01*
X136904761Y-71904761D02*
X136523809Y-71904761D01*
X136333333Y-71809523D01*
X136238095Y-71714285D01*
X136047619Y-71428571D01*
X135952380Y-71047619D01*
X135952380Y-70285714D01*
X136047619Y-70095238D01*
X136142857Y-70000000D01*
X136333333Y-69904761D01*
X136714285Y-69904761D01*
X136904761Y-70000000D01*
X137000000Y-70095238D01*
X137095238Y-70285714D01*
X137095238Y-70761904D01*
X137000000Y-70952380D01*
X136904761Y-71047619D01*
X136714285Y-71142857D01*
X136333333Y-71142857D01*
X136142857Y-71047619D01*
X136047619Y-70952380D01*
X135952380Y-70761904D01*
X134238095Y-69904761D02*
X134619047Y-69904761D01*
X134809523Y-70000000D01*
X134904761Y-70095238D01*
X135095238Y-70380952D01*
X135190476Y-70761904D01*
X135190476Y-71523809D01*
X135095238Y-71714285D01*
X135000000Y-71809523D01*
X134809523Y-71904761D01*
X134428571Y-71904761D01*
X134238095Y-71809523D01*
X134142857Y-71714285D01*
X134047619Y-71523809D01*
X134047619Y-71047619D01*
X134142857Y-70857142D01*
X134238095Y-70761904D01*
X134428571Y-70666666D01*
X134809523Y-70666666D01*
X135000000Y-70761904D01*
X135095238Y-70857142D01*
X135190476Y-71047619D01*
X131666666Y-71904761D02*
X131666666Y-69904761D01*
X130714285Y-70571428D02*
X130714285Y-71904761D01*
X130714285Y-70761904D02*
X130619047Y-70666666D01*
X130428571Y-70571428D01*
X130142857Y-70571428D01*
X129952380Y-70666666D01*
X129857142Y-70857142D01*
X129857142Y-71904761D01*
X129095238Y-70571428D02*
X128619047Y-71904761D01*
X128142857Y-70571428D01*
X126619047Y-71809523D02*
X126809523Y-71904761D01*
X127190476Y-71904761D01*
X127380952Y-71809523D01*
X127476190Y-71619047D01*
X127476190Y-70857142D01*
X127380952Y-70666666D01*
X127190476Y-70571428D01*
X126809523Y-70571428D01*
X126619047Y-70666666D01*
X126523809Y-70857142D01*
X126523809Y-71047619D01*
X127476190Y-71238095D01*
X125666666Y-71904761D02*
X125666666Y-70571428D01*
X125666666Y-70952380D02*
X125571428Y-70761904D01*
X125476190Y-70666666D01*
X125285714Y-70571428D01*
X125095238Y-70571428D01*
X124714285Y-70571428D02*
X123952380Y-70571428D01*
X124428571Y-69904761D02*
X124428571Y-71619047D01*
X124333333Y-71809523D01*
X124142857Y-71904761D01*
X123952380Y-71904761D01*
X123285714Y-71904761D02*
X123285714Y-70571428D01*
X123285714Y-69904761D02*
X123380952Y-70000000D01*
X123285714Y-70095238D01*
X123190476Y-70000000D01*
X123285714Y-69904761D01*
X123285714Y-70095238D01*
X122333333Y-70571428D02*
X122333333Y-71904761D01*
X122333333Y-70761904D02*
X122238095Y-70666666D01*
X122047619Y-70571428D01*
X121761904Y-70571428D01*
X121571428Y-70666666D01*
X121476190Y-70857142D01*
X121476190Y-71904761D01*
X119666666Y-70571428D02*
X119666666Y-72190476D01*
X119761904Y-72380952D01*
X119857142Y-72476190D01*
X120047619Y-72571428D01*
X120333333Y-72571428D01*
X120523809Y-72476190D01*
X119666666Y-71809523D02*
X119857142Y-71904761D01*
X120238095Y-71904761D01*
X120428571Y-71809523D01*
X120523809Y-71714285D01*
X120619047Y-71523809D01*
X120619047Y-70952380D01*
X120523809Y-70761904D01*
X120428571Y-70666666D01*
X120238095Y-70571428D01*
X119857142Y-70571428D01*
X119666666Y-70666666D01*
X116523809Y-70857142D02*
X116238095Y-70952380D01*
X116142857Y-71047619D01*
X116047619Y-71238095D01*
X116047619Y-71523809D01*
X116142857Y-71714285D01*
X116238095Y-71809523D01*
X116428571Y-71904761D01*
X117190476Y-71904761D01*
X117190476Y-69904761D01*
X116523809Y-69904761D01*
X116333333Y-70000000D01*
X116238095Y-70095238D01*
X116142857Y-70285714D01*
X116142857Y-70476190D01*
X116238095Y-70666666D01*
X116333333Y-70761904D01*
X116523809Y-70857142D01*
X117190476Y-70857142D01*
X114333333Y-70571428D02*
X114333333Y-71904761D01*
X115190476Y-70571428D02*
X115190476Y-71619047D01*
X115095238Y-71809523D01*
X114904761Y-71904761D01*
X114619047Y-71904761D01*
X114428571Y-71809523D01*
X114333333Y-71714285D01*
X112523809Y-71809523D02*
X112714285Y-71904761D01*
X113095238Y-71904761D01*
X113285714Y-71809523D01*
X113380952Y-71714285D01*
X113476190Y-71523809D01*
X113476190Y-70952380D01*
X113380952Y-70761904D01*
X113285714Y-70666666D01*
X113095238Y-70571428D01*
X112714285Y-70571428D01*
X112523809Y-70666666D01*
X111666666Y-71904761D02*
X111666666Y-69904761D01*
X111476190Y-71142857D02*
X110904761Y-71904761D01*
X110904761Y-70571428D02*
X111666666Y-71333333D01*
X107380952Y-71714285D02*
X107476190Y-71809523D01*
X107761904Y-71904761D01*
X107952380Y-71904761D01*
X108238095Y-71809523D01*
X108428571Y-71619047D01*
X108523809Y-71428571D01*
X108619047Y-71047619D01*
X108619047Y-70761904D01*
X108523809Y-70380952D01*
X108428571Y-70190476D01*
X108238095Y-70000000D01*
X107952380Y-69904761D01*
X107761904Y-69904761D01*
X107476190Y-70000000D01*
X107380952Y-70095238D01*
X106238095Y-71904761D02*
X106428571Y-71809523D01*
X106523809Y-71714285D01*
X106619047Y-71523809D01*
X106619047Y-70952380D01*
X106523809Y-70761904D01*
X106428571Y-70666666D01*
X106238095Y-70571428D01*
X105952380Y-70571428D01*
X105761904Y-70666666D01*
X105666666Y-70761904D01*
X105571428Y-70952380D01*
X105571428Y-71523809D01*
X105666666Y-71714285D01*
X105761904Y-71809523D01*
X105952380Y-71904761D01*
X106238095Y-71904761D01*
X104714285Y-70571428D02*
X104714285Y-71904761D01*
X104714285Y-70761904D02*
X104619047Y-70666666D01*
X104428571Y-70571428D01*
X104142857Y-70571428D01*
X103952380Y-70666666D01*
X103857142Y-70857142D01*
X103857142Y-71904761D01*
X103095238Y-70571428D02*
X102619047Y-71904761D01*
X102142857Y-70571428D01*
X100619047Y-71809523D02*
X100809523Y-71904761D01*
X101190476Y-71904761D01*
X101380952Y-71809523D01*
X101476190Y-71619047D01*
X101476190Y-70857142D01*
X101380952Y-70666666D01*
X101190476Y-70571428D01*
X100809523Y-70571428D01*
X100619047Y-70666666D01*
X100523809Y-70857142D01*
X100523809Y-71047619D01*
X101476190Y-71238095D01*
X99666666Y-71904761D02*
X99666666Y-70571428D01*
X99666666Y-70952380D02*
X99571428Y-70761904D01*
X99476190Y-70666666D01*
X99285714Y-70571428D01*
X99095238Y-70571428D01*
X98714285Y-70571428D02*
X97952380Y-70571428D01*
X98428571Y-69904761D02*
X98428571Y-71619047D01*
X98333333Y-71809523D01*
X98142857Y-71904761D01*
X97952380Y-71904761D01*
X96523809Y-71809523D02*
X96714285Y-71904761D01*
X97095238Y-71904761D01*
X97285714Y-71809523D01*
X97380952Y-71619047D01*
X97380952Y-70857142D01*
X97285714Y-70666666D01*
X97095238Y-70571428D01*
X96714285Y-70571428D01*
X96523809Y-70666666D01*
X96428571Y-70857142D01*
X96428571Y-71047619D01*
X97380952Y-71238095D01*
X95571428Y-71904761D02*
X95571428Y-70571428D01*
X95571428Y-70952380D02*
X95476190Y-70761904D01*
X95380952Y-70666666D01*
X95190476Y-70571428D01*
X95000000Y-70571428D01*
X145428571Y-104904761D02*
X145428571Y-102904761D01*
X144952380Y-102904761D01*
X144666666Y-103000000D01*
X144476190Y-103190476D01*
X144380952Y-103380952D01*
X144285714Y-103761904D01*
X144285714Y-104047619D01*
X144380952Y-104428571D01*
X144476190Y-104619047D01*
X144666666Y-104809523D01*
X144952380Y-104904761D01*
X145428571Y-104904761D01*
X142666666Y-104809523D02*
X142857142Y-104904761D01*
X143238095Y-104904761D01*
X143428571Y-104809523D01*
X143523809Y-104619047D01*
X143523809Y-103857142D01*
X143428571Y-103666666D01*
X143238095Y-103571428D01*
X142857142Y-103571428D01*
X142666666Y-103666666D01*
X142571428Y-103857142D01*
X142571428Y-104047619D01*
X143523809Y-104238095D01*
X141809523Y-104809523D02*
X141619047Y-104904761D01*
X141238095Y-104904761D01*
X141047619Y-104809523D01*
X140952380Y-104619047D01*
X140952380Y-104523809D01*
X141047619Y-104333333D01*
X141238095Y-104238095D01*
X141523809Y-104238095D01*
X141714285Y-104142857D01*
X141809523Y-103952380D01*
X141809523Y-103857142D01*
X141714285Y-103666666D01*
X141523809Y-103571428D01*
X141238095Y-103571428D01*
X141047619Y-103666666D01*
X140095238Y-104904761D02*
X140095238Y-103571428D01*
X140095238Y-102904761D02*
X140190476Y-103000000D01*
X140095238Y-103095238D01*
X140000000Y-103000000D01*
X140095238Y-102904761D01*
X140095238Y-103095238D01*
X138285714Y-103571428D02*
X138285714Y-105190476D01*
X138380952Y-105380952D01*
X138476190Y-105476190D01*
X138666666Y-105571428D01*
X138952380Y-105571428D01*
X139142857Y-105476190D01*
X138285714Y-104809523D02*
X138476190Y-104904761D01*
X138857142Y-104904761D01*
X139047619Y-104809523D01*
X139142857Y-104714285D01*
X139238095Y-104523809D01*
X139238095Y-103952380D01*
X139142857Y-103761904D01*
X139047619Y-103666666D01*
X138857142Y-103571428D01*
X138476190Y-103571428D01*
X138285714Y-103666666D01*
X137333333Y-103571428D02*
X137333333Y-104904761D01*
X137333333Y-103761904D02*
X137238095Y-103666666D01*
X137047619Y-103571428D01*
X136761904Y-103571428D01*
X136571428Y-103666666D01*
X136476190Y-103857142D01*
X136476190Y-104904761D01*
X134761904Y-104809523D02*
X134952380Y-104904761D01*
X135333333Y-104904761D01*
X135523809Y-104809523D01*
X135619047Y-104619047D01*
X135619047Y-103857142D01*
X135523809Y-103666666D01*
X135333333Y-103571428D01*
X134952380Y-103571428D01*
X134761904Y-103666666D01*
X134666666Y-103857142D01*
X134666666Y-104047619D01*
X135619047Y-104238095D01*
X132952380Y-104904761D02*
X132952380Y-102904761D01*
X132952380Y-104809523D02*
X133142857Y-104904761D01*
X133523809Y-104904761D01*
X133714285Y-104809523D01*
X133809523Y-104714285D01*
X133904761Y-104523809D01*
X133904761Y-103952380D01*
X133809523Y-103761904D01*
X133714285Y-103666666D01*
X133523809Y-103571428D01*
X133142857Y-103571428D01*
X132952380Y-103666666D01*
X130476190Y-104904761D02*
X130476190Y-102904761D01*
X130476190Y-103666666D02*
X130285714Y-103571428D01*
X129904761Y-103571428D01*
X129714285Y-103666666D01*
X129619047Y-103761904D01*
X129523809Y-103952380D01*
X129523809Y-104523809D01*
X129619047Y-104714285D01*
X129714285Y-104809523D01*
X129904761Y-104904761D01*
X130285714Y-104904761D01*
X130476190Y-104809523D01*
X128857142Y-103571428D02*
X128380952Y-104904761D01*
X127904761Y-103571428D02*
X128380952Y-104904761D01*
X128571428Y-105380952D01*
X128666666Y-105476190D01*
X128857142Y-105571428D01*
X127142857Y-104714285D02*
X127047619Y-104809523D01*
X127142857Y-104904761D01*
X127238095Y-104809523D01*
X127142857Y-104714285D01*
X127142857Y-104904761D01*
X127142857Y-103666666D02*
X127047619Y-103761904D01*
X127142857Y-103857142D01*
X127238095Y-103761904D01*
X127142857Y-103666666D01*
X127142857Y-103857142D01*
X124666666Y-104904761D02*
X124666666Y-102904761D01*
X124000000Y-104333333D01*
X123333333Y-102904761D01*
X123333333Y-104904761D01*
X121619047Y-104809523D02*
X121809523Y-104904761D01*
X122190476Y-104904761D01*
X122380952Y-104809523D01*
X122476190Y-104619047D01*
X122476190Y-103857142D01*
X122380952Y-103666666D01*
X122190476Y-103571428D01*
X121809523Y-103571428D01*
X121619047Y-103666666D01*
X121523809Y-103857142D01*
X121523809Y-104047619D01*
X122476190Y-104238095D01*
X120666666Y-104904761D02*
X120666666Y-102904761D01*
X119809523Y-104904761D02*
X119809523Y-103857142D01*
X119904761Y-103666666D01*
X120095238Y-103571428D01*
X120380952Y-103571428D01*
X120571428Y-103666666D01*
X120666666Y-103761904D01*
X118857142Y-104904761D02*
X118857142Y-103571428D01*
X118857142Y-103761904D02*
X118761904Y-103666666D01*
X118571428Y-103571428D01*
X118285714Y-103571428D01*
X118095238Y-103666666D01*
X118000000Y-103857142D01*
X118000000Y-104904761D01*
X118000000Y-103857142D02*
X117904761Y-103666666D01*
X117714285Y-103571428D01*
X117428571Y-103571428D01*
X117238095Y-103666666D01*
X117142857Y-103857142D01*
X117142857Y-104904761D01*
X115428571Y-104809523D02*
X115619047Y-104904761D01*
X116000000Y-104904761D01*
X116190476Y-104809523D01*
X116285714Y-104619047D01*
X116285714Y-103857142D01*
X116190476Y-103666666D01*
X116000000Y-103571428D01*
X115619047Y-103571428D01*
X115428571Y-103666666D01*
X115333333Y-103857142D01*
X115333333Y-104047619D01*
X116285714Y-104238095D01*
X114761904Y-103571428D02*
X114000000Y-103571428D01*
X114476190Y-102904761D02*
X114476190Y-104619047D01*
X114380952Y-104809523D01*
X114190476Y-104904761D01*
X114000000Y-104904761D01*
X111809523Y-103857142D02*
X111142857Y-103857142D01*
X110857142Y-104904761D02*
X111809523Y-104904761D01*
X111809523Y-102904761D01*
X110857142Y-102904761D01*
X110000000Y-104904761D02*
X110000000Y-103571428D01*
X110000000Y-103761904D02*
X109904761Y-103666666D01*
X109714285Y-103571428D01*
X109428571Y-103571428D01*
X109238095Y-103666666D01*
X109142857Y-103857142D01*
X109142857Y-104904761D01*
X109142857Y-103857142D02*
X109047619Y-103666666D01*
X108857142Y-103571428D01*
X108571428Y-103571428D01*
X108380952Y-103666666D01*
X108285714Y-103857142D01*
X108285714Y-104904761D01*
X107333333Y-104904761D02*
X107333333Y-103571428D01*
X107333333Y-103952380D02*
X107238095Y-103761904D01*
X107142857Y-103666666D01*
X106952380Y-103571428D01*
X106761904Y-103571428D01*
X105333333Y-104809523D02*
X105523809Y-104904761D01*
X105904761Y-104904761D01*
X106095238Y-104809523D01*
X106190476Y-104619047D01*
X106190476Y-103857142D01*
X106095238Y-103666666D01*
X105904761Y-103571428D01*
X105523809Y-103571428D01*
X105333333Y-103666666D01*
X105238095Y-103857142D01*
X105238095Y-104047619D01*
X106190476Y-104238095D01*
X102857142Y-104904761D02*
X102857142Y-102904761D01*
X102380952Y-102904761D01*
X102095238Y-103000000D01*
X101904761Y-103190476D01*
X101809523Y-103380952D01*
X101714285Y-103761904D01*
X101714285Y-104047619D01*
X101809523Y-104428571D01*
X101904761Y-104619047D01*
X102095238Y-104809523D01*
X102380952Y-104904761D01*
X102857142Y-104904761D01*
X100571428Y-104904761D02*
X100761904Y-104809523D01*
X100857142Y-104714285D01*
X100952380Y-104523809D01*
X100952380Y-103952380D01*
X100857142Y-103761904D01*
X100761904Y-103666666D01*
X100571428Y-103571428D01*
X100285714Y-103571428D01*
X100095238Y-103666666D01*
X100000000Y-103761904D01*
X99904761Y-103952380D01*
X99904761Y-104523809D01*
X100000000Y-104714285D01*
X100095238Y-104809523D01*
X100285714Y-104904761D01*
X100571428Y-104904761D01*
X98190476Y-103571428D02*
X98190476Y-105190476D01*
X98285714Y-105380952D01*
X98380952Y-105476190D01*
X98571428Y-105571428D01*
X98857142Y-105571428D01*
X99047619Y-105476190D01*
X98190476Y-104809523D02*
X98380952Y-104904761D01*
X98761904Y-104904761D01*
X98952380Y-104809523D01*
X99047619Y-104714285D01*
X99142857Y-104523809D01*
X99142857Y-103952380D01*
X99047619Y-103761904D01*
X98952380Y-103666666D01*
X98761904Y-103571428D01*
X98380952Y-103571428D01*
X98190476Y-103666666D01*
X99047619Y-102809523D02*
X98952380Y-103000000D01*
X98761904Y-103095238D01*
X98571428Y-103095238D01*
X98380952Y-103000000D01*
X98285714Y-102809523D01*
X96380952Y-104904761D02*
X96380952Y-103857142D01*
X96476190Y-103666666D01*
X96666666Y-103571428D01*
X97047619Y-103571428D01*
X97238095Y-103666666D01*
X96380952Y-104809523D02*
X96571428Y-104904761D01*
X97047619Y-104904761D01*
X97238095Y-104809523D01*
X97333333Y-104619047D01*
X97333333Y-104428571D01*
X97238095Y-104238095D01*
X97047619Y-104142857D01*
X96571428Y-104142857D01*
X96380952Y-104047619D01*
X95428571Y-103571428D02*
X95428571Y-104904761D01*
X95428571Y-103761904D02*
X95333333Y-103666666D01*
X95142857Y-103571428D01*
X94857142Y-103571428D01*
X94666666Y-103666666D01*
X94571428Y-103857142D01*
X94571428Y-104904761D01*
M02*
