M48
; DRILL file {KiCad (6.0.2)} date Sun Aug  7 03:31:57 2022
; FORMAT={-:-/ absolute / inch / decimal}
; #@! TF.CreationDate,2022-08-07T03:31:57+03:00
; #@! TF.GenerationSoftware,Kicad,Pcbnew,(6.0.2)
; #@! TF.FileFunction,Plated,1,2,PTH
FMAT,2
INCH
; #@! TA.AperFunction,Plated,PTH,ViaDrill
T1C0.0157
; #@! TA.AperFunction,Plated,PTH,ComponentDrill
T2C0.0276
; #@! TA.AperFunction,Plated,PTH,ComponentDrill
T3C0.0295
; #@! TA.AperFunction,Plated,PTH,ComponentDrill
T4C0.0394
; #@! TA.AperFunction,Plated,PTH,ComponentDrill
T5C0.0433
; #@! TA.AperFunction,Plated,PTH,ComponentDrill
T6C0.0512
; #@! TA.AperFunction,Plated,PTH,ComponentDrill
T7C0.0630
%
G90
G05
T1
X4.5276Y-3.622
X5.4882Y-3.2126
T2
X4.1732Y-3.3146
X4.1732Y-3.6146
X4.7319Y-3.6614
X5.0319Y-3.6614
X5.2043Y-3.3465
X5.5043Y-3.3465
T3
X4.4488Y-3.3752
X4.4488Y-3.4252
X4.4488Y-3.4752
T4
X4.8031Y-3.017
X4.8031Y-3.2139
T5
X4.2094Y-3.8189
X4.6094Y-3.8189
X5.2205Y-3.0965
X5.2874Y-2.9508
X5.3543Y-3.0965
X5.4213Y-2.9508
X5.4882Y-3.0965
T6
X3.8189Y-3.3644
X3.8189Y-3.5644
X5.3543Y-3.64
X5.3543Y-3.84
T7
X3.8339Y-2.9134
X4.4339Y-2.9134
T0
M30
